<?xml version="1.0" standalone="no"?>
<!DOCTYPE svg PUBLIC "-//W3C//DTD SVG 1.1//EN" "http://www.w3.org/Graphics/SVG/1.1/DTD/svg11.dtd" >
<!--
2017-4-1: Created with FontForge (http://fontforge.org)
-->
<svg>
<metadata>
Created by FontForge 20090622 at Wed Apr  1 11:21:21 2020
 By deploy user
Copyright (c) 2017, HASLINDA ADNAN
</metadata>
<defs>
<font id="Khalifah" horiz-adv-x="553" >
  <font-face 
    font-family="Khalifah"
    font-weight="400"
    font-stretch="normal"
    units-per-em="1000"
    panose-1="2 0 5 3 0 0 0 0 0 0"
    ascent="800"
    descent="-200"
    x-height="740"
    cap-height="1211.5"
    bbox="-3674.45 -816.294 2016.13 1287.66"
    underline-thickness="50"
    underline-position="-100"
    unicode-range="U+0020-U+007A"
  />
<missing-glyph horiz-adv-x="364" 
d="M33 0v666h265v-666h-265zM66 33h199v600h-199v-600z" />
    <glyph glyph-name=".notdef" horiz-adv-x="364" 
d="M33 0v666h265v-666h-265zM66 33h199v600h-199v-600z" />
    <glyph glyph-name=".null" horiz-adv-x="0" 
 />
    <glyph glyph-name="nonmarkingreturn" horiz-adv-x="333" 
 />
    <glyph glyph-name="space" unicode=" " horiz-adv-x="556" 
 />
    <glyph glyph-name="exclam" unicode="!" horiz-adv-x="201" 
d="M122 -54q-30 -24 -62 1.5t-42 60.5q-3 17 -4.5 45t8 51.5t29.5 17.5q-3 16 8 25.5t25 1.5q8 -4 10.5 -9.5t2.5 -14t1 -13.5q2 -6 10.5 -3.5t17 6.5t16.5 -1q12 -9 11 -45q0 -2 -0.5 -14.5t-0.5 -17t-1 -17t-2 -18t-3.5 -16t-5.5 -16.5t-7.5 -13t-10.5 -11zM115 1171
q57 87 62 -23q2 -40 -2 -92l-2 -638q5 -10 -1 -34t-22 -41.5t-37 -7.5q1 -10 -1 -23.5t-11.5 -23t-24.5 -1.5q-14 7 -15.5 23t-1.5 31.5t-11 21.5q-9 -5 -17 -17q2 2 -3 24q-7 29 -1 105l8 578q0 3 -0.5 5.5l-1 5t-1.5 6t-2 5.5t-2 5q-4 13 -3 15t14 -9q4 69 22 98
q13 22 33 16.5t21 -29.5z" />
    <glyph glyph-name="quotedbl" unicode="&#x22;" horiz-adv-x="322" 
d="M263 1091q-6 -5 -18 -53q-7 -22 -12 -22q-4 3 -7 16.5t-14 41t-32 58.5q-8 12 -10.5 45t6.5 59.5t29 20.5q-3 16 8 25.5t25 1.5q8 -4 10.5 -9.5t2.5 -14t1 -13.5q2 -6 10 -3.5t17 6.5t17 -1q12 -9 11 -45q-2 -80 -44 -113zM103 1091q-6 -5 -18 -53q-7 -22 -12 -22
q-4 3 -7 16.5t-14 41t-32 58.5q-8 12 -10.5 45t6.5 59.5t29 20.5q-3 16 8 25.5t25 1.5q8 -4 10.5 -9.5t2.5 -14t1 -13.5q2 -6 10 -3.5t17 6.5t17 -1q12 -9 11 -45q-2 -80 -44 -113z" />
    <glyph glyph-name="numbersign" unicode="#" horiz-adv-x="873" 
d="M425 958q64 57 59 -7q-3 -42 -31 -119l-32 -118l119 -1l43 153q1 2 1 5v5v5.5v5.5v6q-1 8 -0.5 12.5t3 2.5t9.5 -12q22 66 46 89q19 18 36.5 7.5t12.5 -34.5q64 57 59 -7q-3 -42 -31 -119l-33 -121h8q3 0 5.5 0.5t5 1.5t6 2t5 1.5t5.5 1.5q13 5 15 4t-9 -15q69 -4 98 -21
q22 -14 16.5 -33.5t-29.5 -20.5q88 -56 -22 -63q-40 -2 -92 3l-49 -1l-32 -116h76q2 0 5 0.5t5.5 1t5.5 1.5t5 1.5l6 1.5q13 5 14.5 4t-9.5 -14q70 -4 99 -22q22 -13 16.5 -33t-29.5 -21q87 -56 -23 -62q-39 -2 -92 2l-117 -1l-52 -193q2 -11 -10.5 -32.5t-30.5 -34t-39 1.5
q-2 -18 -15.5 -35.5t-31.5 -1.5q-12 11 -10 28t7 28.5t-5 24.5q-12 -3 -21 -12q2 2 3 25q2 29 26 101l28 100l-115 -1l-52 -192q2 -11 -10.5 -32.5t-30.5 -34t-39 1.5q-2 -18 -16 -35.5t-31 -1.5q-12 11 -10 28t7 28.5t-5 24.5q-12 -3 -21 -12q2 2 3 25q1 29 26 101l28 98
h-1h-1q-10 -4 -34 1.5t-41.5 21.5t-8.5 37q-9 -1 -22.5 1t-23 11t-2.5 25q8 14 23.5 15.5t31 2t21.5 10.5q-5 9 -17 17q2 -1 25 4q30 6 91 2l31 109h-73q-10 -5 -34 0.5t-41.5 22t-7.5 37.5q-10 -1 -23.5 1t-23 11t-1.5 24q7 14 23 16t31 2t21 11q-5 8 -17 17q2 -2 25 3
q29 7 105 2l57 -1l42 151q1 2 1 5v5v5.5v5.5v6q-1 8 -1 12.5t3 2.5t10 -12q22 66 46 89q19 18 36.5 7.5t12.5 -34.5zM500 571l-118 -1l-30 -112l116 -1z" />
    <glyph glyph-name="dollar" unicode="$" horiz-adv-x="551" 
d="M216 113q58 -13 92.5 10t41.5 67q4 24 -2 46t-16 38t-30 34.5t-34.5 29l-39.5 27.5l-36 25q-79 58 -119 142t-10 167q10 27 21 45.5t32.5 38.5t57.5 34t88 23q1 8 -1.5 39.5t-1.5 58.5t9 38q14 18 40.5 4.5t27.5 -35.5q51 67 56 -30q2 -37 -3 -79h8t17.5 -2.5t21 -7.5
t13.5 -15.5t1 -26.5q13 3 39.5 -15.5t12.5 -34.5q-6 -7 -21.5 -10.5t-27.5 -3.5l-12 -1q36 -27 37 -50q1 -21 -34 -6q-15 7 -46 29q-72 53 -152 22q-67 -26 -64 -79q10 -126 182 -205q43 -20 76 -51t50.5 -67t25 -75t-1 -76.5t-27 -70t-53 -57t-79.5 -35.5v-13t-0.5 -20
t-2.5 -23.5t-6 -22t-11 -17t-18 -8.5t-27 6q2 -16 -6.5 -33.5t-29.5 -7.5q-15 6 -16.5 19.5t-1.5 26.5t-11 18q-10 -16 -15 -12.5t-5 19.5l-4 67q-7 1 -19.5 4t-43 18.5t-53.5 38.5q-31 24 -45 75t-11.5 101t15.5 85q8 20 20 7q8 -9 8 -23q22 46 53 44q22 -1 26 -25
q0 -3 1 -6q0 -12 -1 -24.5t-3 -31.5l-3 -28q-1 -102 71 -119z" />
    <glyph glyph-name="percent" unicode="%" horiz-adv-x="593" 
d="M243 689q-30 -24 -62 2t-42 61q-3 16 -4.5 44t8 52t29.5 17q-3 16 8 25.5t25 1.5q8 -4 10.5 -9.5t2.5 -14t1 -12.5q2 -6 10 -3.5t17 6.5t17 -1q12 -10 11 -46q0 -1 -0.5 -14t-0.5 -17.5t-1 -16.5t-2 -18t-3.5 -16.5t-5.5 -16.5t-7.5 -12.5t-10.5 -11.5zM401 83
q-30 -24 -62 1.5t-42 60.5q-3 17 -4.5 45t8 51.5t29.5 17.5q-3 16 8 25.5t25 1.5q8 -4 10.5 -9.5t2.5 -14t1 -13.5q2 -6 10.5 -3.5t17 6.5t16.5 -1q12 -9 11 -45q0 -2 -0.5 -14.5t-0.5 -17t-1 -17t-2 -18t-3.5 -16t-5.5 -16.5t-7.5 -13t-10.5 -11zM508 926q67 41 60 -7
q-6 -40 -54 -122l-328 -701q0 -11 -16 -30t-36 -28t-38 8q-3 -9 -10.5 -19.5t-19.5 -17t-23 8.5q-10 13 -5 29t12 27t-1 25q-13 -1 -22 -8v1q4 9 7 23q7 29 43 95l309 643q1 3 2 5.5t1.5 5t1 6t0.5 5.5t1 5q0 8 1 10.5t2 4.5t3 -1.5t6 -12.5q11 20 17 30t18.5 25.5
t25.5 24.5q22 14 37.5 0.5t5.5 -35.5z" />
    <glyph glyph-name="ampersand" unicode="&#x26;" horiz-adv-x="615" 
d="M453 822q12 -94 -35.5 -190.5t-120.5 -151.5l121 -257q9 10 34 40q9 10 18 21.5t19 23l26 30.5q30 36 43 13q9 -17 2 -64q12 16 28.5 14.5t13.5 -23.5t-18 -50t-28.5 -45t-41.5 -48.5l-35 -39.5q21 -40 27 -68q3 -14 7 -23l-1 -1q-7 7 -19 8q-7 -11 5.5 -37.5t1.5 -42.5
q-10 -15 -20.5 -9t-18 17t-10.5 20q-15 -17 -33.5 -8.5t-33 28t-15.5 30.5l-1 2q-13 -4 -48.5 -6.5t-53.5 -4.5q-57 -8 -107.5 15.5t-83 66t-48.5 99.5t-10.5 113.5t38.5 111t92 89.5q1 1 3 2t3.5 2l1.5 1q-58 73 -91 185.5t-3 190.5q17 42 51.5 69.5t75.5 38t85.5 5.5
t82.5 -24.5t65 -57t32 -85.5zM257 624l26 25.5t21 19.5q23 22 30.5 51t0 53t-25 43.5t-45 22t-58.5 -12.5q-12 -6 -18 -16t-6 -23t2 -25t8.5 -28.5t11.5 -27l12.5 -25.5t10.5 -20zM312 140l-111 254q-1 0 -1 -1q-89 -126 18 -229q42 -41 94 -24z" />
    <glyph glyph-name="quotesingle" unicode="'" horiz-adv-x="170" 
d="M103 1091q-7 -5 -14.5 -39.5t-15.5 -35.5q-13 -2 -18 6.5t-5 22.5t-7 39t-23 48q-8 12 -10.5 45t6.5 59.5t29 20.5q-3 16 8 25.5t25 1.5q8 -4 10.5 -9.5t2.5 -14t1 -13.5q2 -6 10 -3.5t17 6.5t17 -1q12 -9 11 -45q-2 -80 -44 -113z" />
    <glyph glyph-name="parenleft" unicode="(" horiz-adv-x="473" 
d="M197 43q-86 81 -135 205.5t-57.5 259t13 269t69.5 245.5q23 53 48.5 86.5t64.5 56.5q31 18 63 28q27 9 65 4q44 -6 23 -35q25 2 63.5 -8.5t18.5 -35.5q-10 -14 -36.5 -15.5t-50.5 -3.5t-29 -16q9 -9 11 -15.5t-6 -13t-15.5 -10.5t-25.5 -11l-20 -9t-19.5 -9.5t-20 -12.5
t-15.5 -14.5t-13 -17.5q-50 -98 -61 -195t-3 -239q6 -98 28 -172q21 -68 51.5 -110t95.5 -89q6 -4 14 -8.5t13 -7l15 -7.5q14 -6 20 -9t12 -8.5t3 -9.5t-13 -9t-30 -10q8 -7 23.5 -2t38 4t33.5 -14q10 -15 5.5 -24.5t-19 -14.5t-27.5 -7t-19 -1q14 -38 -35 -41
q-54 -4 -112 27q-18 9 -29 20z" />
    <glyph glyph-name="parenright" unicode=")" horiz-adv-x="473" 
d="M245 51q86 80 135 205t57.5 259t-13 269t-69.5 245q-23 53 -48.5 86.5t-64.5 56.5q-31 18 -63 29q-27 8 -65 3q-44 -6 -23 -35q-24 3 -63 -8t-19 -36q10 -13 37 -14.5t50.5 -3.5t28.5 -17q-9 -8 -10.5 -14.5t6 -13t15.5 -10.5t25 -11l20 -9t19.5 -10t20 -12.5t16 -14
t12.5 -18.5q50 -97 61 -194t3 -240q-5 -97 -28 -171q-21 -69 -51 -111t-96 -88q-6 -4 -14 -8.5l-13 -7.5t-15 -7q-14 -6 -20 -9.5t-12 -8.5t-3 -9t13 -9t30 -11q-8 -6 -23.5 -1.5t-38 4t-33.5 -14.5q-10 -14 -5.5 -23.5t19 -14.5t27.5 -7t19 -1q-14 -38 36 -41q54 -4 111 27
q18 9 29 20z" />
    <glyph glyph-name="asterisk" unicode="*" horiz-adv-x="647" 
d="M261 409l-99 75q-72 56 -95 82q-11 13 -20 21q11 -5 22 -4q0 12 -27.5 35t-27.5 40q-1 29 45 -6q9 -7 15 -13q1 31 58 1q35 -19 45 -34l116 -113l2 112q0 9 -4 32q-4 19 -2 18.5t9 -12.5q5 84 18 118q10 28 24 19q13 -8 13 -36q52 130 26 -220q0 -10 -1 -14l98 79
q7 6 21 24q14 16 14 12t-4 -14q68 51 102 63q29 10 30 -9q1 -14 -19 -31q78 25 45 -14q-30 -36 -125 -105l-122 -101q64 -46 147 -133q100 -105 53 -102q-10 1 -27 7q25 -23 16 -37q-7 -11 -29 -2q-34 13 -99 66q5 -16 -12 0q-12 11 -45 49q-25 29 -31 35v-34v-107
q5 -23 -9 -68q-15 -48 -35 -31q1 -22 -5.5 -46.5t-21.5 -10.5q-12 11 -11 46.5t-7 44.5q-7 -6 -12 -20q1 3 -3 30q-2 18 1 61t7.5 93.5l5.5 61.5l-108 -89q-13 -18 -54 -36q-50 -22 -50 6q-26 -24 -48 -28q-14 -3 -13 12q1 17 29 39t29 33q-11 2 -22 -3v1q9 7 20 19
q24 26 98 80z" />
    <glyph glyph-name="plus" unicode="+" horiz-adv-x="651" 
d="M585 662q87 -51 -23 -56q-39 -2 -92 2l-80 -2q2 -446 2 -450q0 -1 0.5 -3t0.5 -4t0.5 -4t1 -3.5t1.5 -4t1 -4t1 -3.5q4 -13 3 -15t-13 9q-3 -70 -19 -98q-12 -22 -30 -16.5t-19 29.5q-54 -93 -55 44q0 17 1 48v23l1 450l-104 -2q-10 -4 -34 1t-41.5 19.5t-7.5 33.5
q-10 -1 -23.5 1t-23 10t-1.5 22q7 13 23 14.5t31.5 1.5t21.5 9q-5 8 -17 16q2 -2 24 3q29 5 105 1h47v337q-4 10 1.5 34t20 41t33.5 8q-1 10 1 23t10 23t22 2q10 -6 16.5 -15t8 -15.5t4 -22.5t4.5 -24q0 -197 1 -392h63q24 0 52 -2q26 -2 37 -3t27 -5.5t30 -11.5
q22 -13 16.5 -30.5t-29.5 -18.5z" />
    <glyph glyph-name="comma" unicode="," horiz-adv-x="193" 
d="M148 12q-20 -16 -43 -8q-6 2 -27 -10t-40 -21t-24 -3q-5 7 8 51t12 48q-2 16 -1.5 45.5t12.5 54.5t32 19q-3 16 8 25.5t25 1.5q8 -4 10.5 -9.5t2.5 -14t1 -13.5q2 -6 10 -3.5t17 6.5t17 -1q12 -9 11 -45q0 -2 -0.5 -14.5t-0.5 -17t-1 -17t-2 -18t-3.5 -16t-5.5 -16.5
t-7.5 -13t-10.5 -11z" />
    <glyph glyph-name="hyphen" unicode="-" horiz-adv-x="651" 
d="M585 336q87 -51 -23 -56q-39 -2 -92 2l-307 -6q-10 -4 -34 1t-41.5 19.5t-7.5 33.5q-10 -1 -23.5 1t-23 10t-1.5 22q7 13 23 14.5t31.5 1.5t21.5 9q-5 8 -17 16q2 -2 24 3q29 5 105 1h248h3t4 0.5l4 1t3.5 1t4 1t4 1t3.5 1.5q14 4 15.5 3t-9.5 -13q70 -4 98 -19
q22 -13 16.5 -30.5t-29.5 -18.5z" />
    <glyph glyph-name="period" unicode="." horiz-adv-x="185" 
d="M131 12q-30 -24 -62 1.5t-42 60.5q-3 17 -4.5 45t8 51.5t29.5 17.5q-3 16 8 25.5t25 1.5q8 -4 10.5 -9.5t2.5 -14t1 -13.5q2 -6 10.5 -3.5t17 6.5t16.5 -1q12 -9 11 -45v-14.5t-0.5 -17t-1.5 -17t-2 -18t-3.5 -16t-5.5 -16.5t-7.5 -13t-10.5 -11z" />
    <glyph glyph-name="slash" unicode="/" horiz-adv-x="561" 
d="M491 926q67 41 60 -7q-6 -40 -54 -122l-328 -701q0 -11 -16 -30t-36 -28t-38 8q-3 -9 -10.5 -19.5t-19.5 -17t-23 8.5q-10 13 -5 29t12 27t-1 25q-13 -1 -22 -8v1q4 9 7 23q7 29 43 95l309 643q1 3 2 5.5t1.5 5t1 6t0.5 5.5t1 5q0 8 1 10.5t2 4.5t3 -1.5t6 -12.5
q11 20 17 30t18.5 25.5t25.5 24.5q22 14 37.5 0.5t5.5 -35.5z" />
    <glyph glyph-name="zero" unicode="0" horiz-adv-x="561" 
d="M256 0q-72 6 -122.5 60.5t-71.5 135.5t-33 177.5t-8.5 185t3.5 160.5q1 34 1 49q6 244 85 346q18 23 44.5 45t49.5 32q13 9 48 3.5t19 -34.5q9 1 27 -1.5t32.5 -13.5t3.5 -28q-8 -13 -28.5 -14.5t-38.5 -3.5t-22 -16q15 -17 17 -29.5t-3.5 -19t-20.5 -20t-24 -24.5
q-39 -51 -55 -166q-5 -39 -6.5 -109t3.5 -153t16 -158t32 -127t49 -56q25 -4 43.5 1.5t29 19t16 25.5t10.5 29t7 21q34 81 40.5 275t-25.5 296q-10 27 3 52q11 24 31 3q-2 25 -27 67.5t-22 71.5q2 39 26 21q15 -11 22 -30q0 3 -2 18q-15 77 2 77q5 0 11 -4q32 -21 59 -111
q18 -59 31 -145.5t18 -187.5t1.5 -204t-22 -198t-48.5 -168t-82 -114t-119 -36z" />
    <glyph glyph-name="one" unicode="1" horiz-adv-x="216" 
d="M117 1152q64 98 71 -21q3 -47 -2 -111l-2 -919q5 -11 -1.5 -39t-25 -48t-43.5 -9q2 -11 -0.5 -26t-13 -26.5t-27.5 -2.5t-19 27t-2 35.5t-12 24.5q-13 -7 -19 -19q1 3 -4 28q-8 33 -2 121l10 850q0 3 -0.5 6t-1.5 6t-2 6.5t-1.5 6t-2.5 6.5q-5 15 -4 17t17 -11
q5 80 25 113q15 25 38 19t24 -34z" />
    <glyph glyph-name="two" unicode="2" horiz-adv-x="455" 
d="M333 58q3 0 12.5 4.5t19 8.5t19.5 7t16.5 0t7.5 -12q1 -21 -18.5 -43.5t-37.5 -22.5q-33 0 -115 -2.5t-150 -2.5q-36 4 -55 22.5t-17 43.5t20 50q28 43 61.5 105.5t72.5 147t71.5 170t53.5 172.5t23 157t-25 121.5t-85 68.5q-20 6 -30.5 -9t-12 -38t-7 -43.5t-15.5 -25.5
t-37 15q-11 -6 -13 -38.5t-13 -42.5q-21 -17 -29.5 8t-5.5 46q-31 -17 -32 31q-1 41 10 62q-3 46 21.5 87.5t65.5 69.5q34 21 75.5 22t77.5 -14.5t65 -42.5q69 -65 95.5 -151.5t9.5 -211t-70 -279t-151 -370.5q70 11 133 3q97 -11 -11 -73z" />
    <glyph glyph-name="three" unicode="3" horiz-adv-x="532" 
d="M497 419q11 -51 10.5 -95t-17 -84.5t-40 -74t-58 -64.5t-72 -55.5t-82.5 -45.5q-17 -8 -42 2q-29 12 -4 34q-78 -7 -120 22q-21 16 -10 30.5t34 12.5q-68 44 -50 52q8 4 41 3q13 0 37.5 -2t39.5 -2t34.5 2t35.5 10.5t29 22.5q45 51 62.5 103t7.5 95.5t-30.5 78.5
t-51.5 62q-11 10 -27.5 20t-35 20t-24.5 13q-12 7 -12.5 18t4.5 19l5 7q30 21 59 38t30 17q54 35 91.5 78.5t44.5 90.5q8 61 -3.5 102.5t-36 60t-57 23t-66.5 -5.5t-64 -30q-32 -20 -43 -5.5t-4 65.5q-7 7 -43 2.5t-47 -1.5q-36 8 13 38q6 4 11 7q-28 12 -0.5 33t55.5 32
q51 21 92 27t96 2q101 -9 161.5 -78t67.5 -181q6 -100 -40.5 -186t-118.5 -138q3 -3 9 -8q29 -22 42.5 -34.5t33 -35t31.5 -51t22 -66.5z" />
    <glyph glyph-name="four" unicode="4" horiz-adv-x="609" 
d="M435 186q25 1 43 -3t26.5 -10t12.5 -14t3.5 -15.5t-4.5 -14.5q19 3 42.5 -9t11.5 -36q-8 -17 -29.5 -23t-38.5 -4l-17 3q13 -19 16.5 -28.5t-3 -15t-16.5 -7t-36 -3.5q3 -6 3.5 -22.5t-2.5 -36t-8.5 -36.5t-17.5 -25t-27 -1q1 -9 2 -22t-8 -23.5t-28 -9.5q-7 0 -12.5 2
t-9 6t-6 7.5t-4 10t-2 10.5t-0.5 12.5v12.5t0.5 13.5t0.5 12.5q-1 -25 -16 -27q-15 -1 -20 24q-2 7 -2 15q0 18 1.5 34.5t0.5 44.5l-128 1q-8 -6 -15 -9t-12.5 -2t-9.5 2.5t-6.5 6.5t-4.5 8.5t-3.5 11t-2 11t-1.5 11.5t-1 10q-2 -3 -5.5 -13.5t-6.5 -17t-11 -14.5t-20 -11
q-21 -6 -33 6t-16 27q-4 28 0 54t11.5 56t7.5 33l183 870q1 3 0.5 13t-0.5 21t0.5 25t2.5 24.5t6.5 19t12.5 10t20 -2.5q-2 11 -0.5 26.5t11 27.5t25.5 3q17 -8 25.5 -30.5t8.5 -39.5v-18q35 23 52 12.5t10 -52.5q-9 -51 -35 -141q62 95 82 9q10 -46 5 -104zM305 180l-4 604
l-140 -604h28.5h56.5h59z" />
    <glyph glyph-name="five" unicode="5" horiz-adv-x="511" 
d="M63 635q11 2 22 3q56 6 105.5 -10.5t82.5 -49t52.5 -77.5t21 -93.5t-17 -99.5t-57.5 -94q-30 -21 -63.5 -30.5t-122.5 -17.5q-38 -4 -41 -16q-3 -10 36 -9q-3 -11 -15 -15t-24 -4.5t-24 -7t-17 -20.5q-6 -18 6.5 -27t29 -7.5t25.5 2.5q-6 -26 13 -42.5t46.5 -20.5t52.5 0
q58 6 113 41t100.5 93t74 145t31.5 188q-2 32 -10.5 66t-30 74t-52.5 71t-83 53.5t-117 25.5l-2 246l89 -5q7 -1 30 -2.5t35.5 -2t31 0.5t32.5 5q45 11 43 20q-2 8 -37 10q7 13 24.5 16t35.5 7.5t26 21.5q9 17 -2.5 27t-26.5 11.5t-27 -0.5q2 15 2 25.5t-6.5 18.5t-13 13
t-17.5 8t-19.5 4.5t-20.5 1.5t-19 -0.5t-16 -1t-11 -0.5q-43 -1 -82.5 0t-55.5 2t-31 0t-20.5 -5t-12.5 -14q-1 27 -23.5 33.5t-38.5 -18.5q-20 -33 -25 -113q-18 17 -17 4q0 -2 12 -38v-3l-2 -324v-17q-1 -56 28 -52z" />
    <glyph glyph-name="six" unicode="6" horiz-adv-x="488" 
d="M236 678q15 37 58.5 160.5t71.5 170.5q9 15 34 52q4 5 6 9.5t2.5 7t-0.5 5t-2 3.5l-3 3l-3 3q-5 5 -14.5 1.5t-14.5 -11.5q-3 -4 -5.5 -5.5t-4.5 -5.5q-13 -20 -14 -12q0 7 12 25l7 10q33 44 16 47q-6 1 -17 -2q8 13 6 42.5t-26 18.5q-12 -6 -25 -22.5t-19 -30.5l-7 -14
q-15 -22 -54 -109q-66 -146 -109 -254t-73 -205t-39.5 -168t-1.5 -133.5t34.5 -111t73.5 -92.5q52 -49 100 -57q45 -8 98.5 13t75.5 58q51 86 68 171.5t3 153.5t-48 126t-82.5 96.5t-103.5 56.5zM248 175q-36 11 -56.5 32t-28 48t-3 67.5t15 80t29.5 94.5q8 -8 27 -24.5
t27.5 -24.5t22.5 -24t22 -29t15.5 -32t12.5 -40q3 -26 -8.5 -63t-32.5 -64t-43 -21z" />
    <glyph glyph-name="seven" unicode="7" horiz-adv-x="447" 
d="M266 1046q-156 3 -218 10q-19 3 -23.5 17.5t6 29.5t27.5 17q-143 78 116 78h10q167 0 168 -34q64 98 72 -22q3 -46 -3 -110l-207 -898q5 -11 -1.5 -39t-25 -48t-43.5 -9q2 -11 -0.5 -26t-13 -26.5t-27.5 -2.5t-18.5 27t-2 35.5t-12.5 24.5q-10 -6 -21 -16q-6 -5 -6 -1
q0 2 2 13q1 8 2 13q10 76 91 438t128 529z" />
    <glyph glyph-name="eight" unicode="8" horiz-adv-x="490" 
d="M147 590q-108 -127 -129 -272t56 -250q17 -22 47 -40.5t66 -29t77 -3.5t75 33q67 53 102 122.5t35.5 137t-20 131.5t-59.5 113.5t-87 75.5q85 81 119.5 174t20 176t-68.5 153q-40 52 -85 68q-39 15 -97 7t-84 -37q-54 -61 -80.5 -133.5t-24.5 -138t20.5 -125t50 -101.5
t66.5 -61zM245 1020q32 -15 47.5 -38.5t16.5 -50.5t-11.5 -62.5t-31 -70t-47.5 -76.5q-21 26 -31.5 41.5t-25 40.5t-21 50.5t-5.5 53.5q3 37 41.5 81.5t67.5 30.5zM210 152q-32 15 -47 38.5t-15.5 50.5t12.5 62.5t32 69.5t48 77l31.5 -43t25 -40.5t20 -51t4.5 -53.5
q-4 -37 -43 -81t-68 -29z" />
    <glyph glyph-name="nine" unicode="9" horiz-adv-x="485" 
d="M246 549q-13 -78 -56 -187t-83 -177q-26 -45 -32 -52q-7 -7 -7 -13t3 -8.5t8 -5.5t6 -4q5 -5 14.5 -1.5t14.5 11.5q3 4 5.5 5.5t4.5 5.5q13 20 14 12q1 -7 -11 -25q-2 -3 -8 -10q-33 -44 -15 -47q6 -1 17 2q-9 -13 -7 -42.5t26 -18.5q13 6 25.5 22.5t18.5 30.5l7 14
q15 22 54 109q66 146 109.5 254t73.5 205t39 168t1.5 133.5t-34.5 111t-73 92.5q-52 49 -101 57q-45 8 -98.5 -13t-75.5 -58q-51 -86 -68 -168t-4 -145.5t47 -116.5t81.5 -88t103.5 -53zM241 1047q35 -10 58.5 -27.5t34 -43.5t13 -55.5t-5 -70t-18.5 -80t-29 -92.5
q-13 12 -37.5 32t-38.5 33t-31 33t-28 44t-16 54q-4 30 9 73.5t38 75t51 24.5z" />
    <glyph glyph-name="colon" unicode=":" horiz-adv-x="176" 
d="M125 12q-30 -24 -62 1.5t-42 60.5q-3 17 -4.5 45t8 51.5t29.5 17.5q-3 16 8 25.5t25 1.5q8 -4 10.5 -9.5t2.5 -14t1 -13.5q2 -6 10 -3.5t17 6.5t17 -1q12 -9 11 -45q0 -2 -0.5 -14.5t-0.5 -17t-1 -17t-2 -18t-3.5 -16t-5.5 -16.5t-7.5 -13t-10.5 -11zM125 276
q-30 -24 -62 2t-42 61q-3 16 -4.5 44t8 52t29.5 17q-3 16 8 25.5t25 1.5q8 -4 10.5 -9.5t2.5 -14t1 -12.5q2 -6 10 -3.5t17 6.5t17 -1q12 -10 11 -46q0 -1 -0.5 -14t-0.5 -17.5t-1 -16.5t-2 -18t-3.5 -16.5t-5.5 -16.5t-7.5 -12.5t-10.5 -11.5z" />
    <glyph glyph-name="semicolon" unicode=";" horiz-adv-x="186" 
d="M131 12q-20 -16 -43 -8q-6 2 -24 -9.5t-34.5 -20t-21.5 -2.5q-5 7 7.5 52.5t11.5 49.5q-3 17 -4.5 45t8 51.5t29.5 17.5q-3 16 8 25.5t25 1.5q8 -4 10.5 -9.5t2.5 -14t1 -13.5q2 -6 10 -3.5t17 6.5t17 -1q12 -9 11 -45q0 -2 -0.5 -14.5t-0.5 -17t-1 -17t-2 -18t-3.5 -16
t-5.5 -16.5t-7.5 -13t-10.5 -11zM131 276q-30 -24 -62 2t-42 61q-3 16 -4.5 44t8 52t29.5 17q-3 16 8 25.5t25 1.5q8 -4 10.5 -9.5t2.5 -14t1 -12.5q2 -6 10 -3.5t17 6.5t17 -1q12 -10 11 -46q0 -1 -0.5 -14t-0.5 -17.5t-1 -16.5t-2 -18t-3.5 -16.5t-5.5 -16.5t-7.5 -12.5
t-10.5 -11.5z" />
    <glyph glyph-name="less" unicode="&#x3c;" 
d="M38 533q-12 -30 1 -63t30 -54l254 -377q5 -17 30.5 -39.5t50.5 -26.5t36 31q16 -28 38 -40q24 -12 30 22q3 19 -3.5 36.5t-16.5 28.5t-17.5 26t-5.5 31q15 4 27 -2v1q-8 12 -18 32q-16 35 -125 203t-135 200l204 377q101 153 93 198q-5 27 -52 5q19 35 5 64
q-10 20 -29 10q-14 -7 -30 -25t-24.5 -31l-25.5 -39q1 27 -2 27l-14 -41q-4 -13 -8 -20l-167 -298q-1 -1 -10.5 -16l-13.5 -21t-14 -23l-16.5 -28.5l-17 -30.5t-18.5 -35.5t-17.5 -38z" />
    <glyph glyph-name="equal" unicode="=" 
d="M492 52q87 -51 -23 -56q-39 -2 -92 2l-214 -6q-10 -4 -34 1t-41.5 19.5t-7.5 33.5q-10 -1 -23.5 1t-23 10t-1.5 22q7 13 23 14.5t31.5 1.5t21.5 9q-5 8 -17 16q2 -2 24 3q29 6 105 1h155q1 0 3 0.5t4 0.5t4 0.5t3.5 1t4 1t4 1t3.5 1.5q14 4 15.5 3t-9.5 -13q70 -4 98 -19
q22 -13 16.5 -30.5t-29.5 -18.5zM492 234q87 -51 -23 -56q-39 -2 -92 2l-214 -6q-10 -4 -34 1t-41.5 19.5t-7.5 33.5q-10 -1 -23.5 1t-23 10t-1.5 22q7 13 23 14.5t31.5 1.5t21.5 9q-5 8 -17 16q2 -2 24 3q29 5 105 1h155h3t4 0.5l4 1t3.5 1t4 1t4 1t3.5 1.5q14 4 15.5 3
t-9.5 -13q70 -4 98 -19q22 -13 16.5 -30.5t-29.5 -18.5z" />
    <glyph glyph-name="greater" unicode="&#x3e;" 
d="M506 550q12 -29 -0.5 -62t-30.5 -55l-254 -377q-5 -17 -30.5 -39.5t-50 -26.5t-35.5 31q-16 -28 -38 -39q-24 -13 -30 21q-4 20 2.5 37.5t16.5 28t17.5 26t5.5 30.5q-15 5 -26 -2v1q8 12 17 32q16 35 125.5 203t134.5 200l-203 377q-101 153 -94 199q5 26 53 4
q-19 35 -6 64q10 20 29 10q15 -7 30.5 -25t24.5 -30.5t25 -38.5q0 27 2 27q1 0 14 -41q5 -13 8 -20l168 -299q1 -1 10 -16t13 -21t14.5 -23t16.5 -28l16.5 -30.5t18.5 -36l18 -38t18 -43.5z" />
    <glyph glyph-name="question" unicode="?" horiz-adv-x="380" 
d="M165 -123q-30 -24 -62 1.5t-42 60.5q-3 17 -4.5 45t8 51.5t29.5 17.5q-3 16 8 25.5t25 1.5q8 -4 10.5 -9.5t2.5 -14t1 -13.5q2 -6 10.5 -3.5t17 6.5t16.5 -1q12 -9 11 -45q0 -2 -0.5 -14.5t-0.5 -17t-1 -17t-2 -18t-3.5 -16t-5.5 -16.5t-7.5 -13t-10.5 -11zM353 867
q0 115 -13 173.5t-51 101.5q-34 39 -88 48.5t-102 -18.5q-35 -23 -56.5 -59.5t-18.5 -76.5q-11 -18 -9 -55q2 -40 28 -26q-3 -18 4.5 -40t25.5 -7q10 9 11.5 37t11.5 34q24 -17 32.5 -14.5t13 19t5.5 35t10.5 33.5t27.5 14q76 -2 50 -351q-3 -38 -10 -58t-20 -29t-27 -13.5
t-37 -17.5t-44.5 -34t-30.5 -108t-9 -160l8 -96l6 -27q15 -21 36 22l10 13l7 -15q1 -10 3 -15.5t6 -13t11 -6t17 13.5v44q-1 12 -3 45t-2.5 52t-1 50.5t3.5 51t11 40.5t20.5 33.5t31.5 16.5q27 6 49 23.5t36 38t23.5 52t14.5 56t7.5 60t2.5 53.5t-0.5 47.5t-0.5 32.5z" />
    <glyph glyph-name="at" unicode="@" horiz-adv-x="856" 
d="M632 119q-53 -62 -128.5 -91.5t-155.5 -18.5t-142 64q-82 71 -126.5 182.5t-51.5 241.5q-9 169 41.5 321.5t155.5 254.5q155 150 296 120q84 -18 151 -93.5t102 -177.5q58 -163 49 -309q-10 -174 -66 -245q-30 -38 -68 -61.5t-77 -25t-69 32.5q-28 31 -43 80
q-40 -40 -86 -61t-90 -20.5t-80 35.5t-53 102q-23 89 12.5 176t107.5 124q79 42 155.5 21t129.5 -105q24 -38 1 -73q5 -99 14 -137q11 -41 39 -15q23 22 35 67q28 109 15 205q-8 51 -21.5 100.5t-35.5 98.5t-56 85t-75 48q-47 13 -97 -6.5t-87.5 -53.5t-72.5 -81
q-78 -105 -100 -255.5t18 -283.5q41 -142 136 -192q46 -24 75 -31t62.5 2.5t73.5 42.5q1 9 19.5 26t38.5 25t33 -7q4 8 9 13.5t15.5 9.5t22.5 -6q3 -2 6 -5t3.5 -6.5t1 -6.5t-1.5 -7.5t-3 -7.5t-4 -8t-4.5 -7l-5.5 -7.5t-5 -7.5q11 17 20 10t-4 -29q-6 -9 -10.5 -18.5
t-8 -15.5t-10.5 -13zM311 484q23 -51 78 -9q47 37 73 100q8 20 10 37q-20 16 -47.5 18t-52 -9.5t-44.5 -31.5t-24.5 -47.5t7.5 -57.5z" />
    <glyph glyph-name="A" unicode="A" horiz-adv-x="576" 
d="M312 1200q20 28 26 10q17 25 31 -39q11 -51 17 -137l75 -475q28 -7 23 -41q7 3 12 -5.5t5 -21t-6 -21.5q-2 -4 -9 -5.5t-9.5 -4t1.5 -14.5q9 -24 -1 -35l59 -324q13 -28 10 -67q-2 -36 -25 -21q1 -5 2 -9t1 -9.5t-1 -9t-3 -5.5t-7 -0.5t-11 6.5q-15 11 -19.5 32t-14.5 29
q-2 -2 -7 -7.5t-6.5 -7t-5.5 -4.5t-6 -1.5t-5 4t-6 9t-5 16.5l-58 371l-160 -2l-62 -324q5 -28 -8 -67q-11 -36 -30 -21q-1 -9 -5 -18.5t-11.5 -14.5t-18.5 6q-12 11 -7 31.5t-2 29.5q-7 -6 -11.5 -9l-11 -7t-9 -4t-6.5 1.5t-3 9.5t1 18q3 14 7 37l8.5 49l10 56l10.5 60
l10 58.5l9 52.5l7 42.5t4.5 28.5t1.5 9q1 7 2 15q-16 5 -24 19q-6 10 -5.5 30.5t10.5 21.5q-12 21 -12.5 35.5t7 19t18 6.5t21.5 -3h1q13 101 36.5 221t35.5 231q4 32 20 47q12 10 22 -9q14 84 32 118q7 16 16.5 20t14.5 -3q12 11 24 -4zM316 568l-33 332l-45 -328z" />
    <glyph glyph-name="B" unicode="B" horiz-adv-x="448" 
d="M149 150l-3 343l54 -7q51 -13 80.5 -47t33 -75t-8 -81.5t-38.5 -72t-61 -42.5zM232 612q106 -33 155 59q22 41 31.5 83.5t6.5 89t-9.5 83.5t-20.5 92q-10 41 -24.5 71t-27 46.5t-44.5 55.5q-17 20 -52 33t-60 11q-31 -2 -41 -21q-5 -8 -0.5 -12.5t13.5 -7t10 -3.5
q-4 -10 -23.5 -21t-21.5 -30q-2 -12 2.5 -16t11.5 -1.5t13.5 6.5t10.5 7q0 -17 16 -21q5 -2 10 -2.5t6.5 -1t5 -3t9.5 -8.5q44 -48 76.5 -138.5t24.5 -146.5q-10 -69 -47.5 -81.5t-70.5 43.5q-15 24 -19.5 71.5t-1.5 86.5q4 57 -12 54q-9 -1 -22 -25q3 32 -9 31
q-13 -2 -26 -31q-4 -8 -5 -16q-1 25 0 37t3.5 29t4.5 37q1 15 4 26t3.5 14.5t-1.5 26.5q-3 14 -9 16.5t-12 -1.5t-10.5 -3t-3.5 12q2 26 -14 31q-14 3 -17 -15q-2 -6 -1 -14q-10 6 -16.5 0t-8 -20.5t-2 -28t0.5 -30.5t1 -20l13 -935q-12 -139 16 -125q10 5 24 29
q1 -35 45 -25q89 20 155.5 54t103.5 74.5t57 86.5t19.5 92.5t-11.5 88.5t-32 78q-34 58 -70.5 89.5t-106.5 58.5z" />
    <glyph glyph-name="C" unicode="C" horiz-adv-x="474" 
d="M431 1025q10 -23 8 -68q-2 -40 -20 -32q-3 1 -5 3q3 -36 -8 -56q-8 -13 -20 0q-9 10 -10 44t-10 41q-32 -35 -40 4q-3 10 -5 36q-7 59 -22 65q-5 3 -13 0q-25 -10 -44.5 -32t-32 -56t-21 -69t-13.5 -84t-7.5 -86t-4.5 -89q-5 -112 4 -212.5t33 -172.5t61 -81q1 0 4 -1
q8 -2 13.5 -3.5t15.5 -5t15.5 -8t10 -10.5t2.5 -14t-11 -17q4 -1 23 -2q74 -4 75 -23q1 -12 -18 -29q2 0 9.5 4.5l15 9t15.5 7t13 0t5 -12.5q1 -20 -13.5 -41.5t-29.5 -27.5q-14 -5 -27.5 -7t-34 -1t-28.5 1.5t-36.5 4t-32.5 4.5q-69 20 -119.5 102t-74.5 193.5t-27.5 243
t14 250.5t57.5 216t95 140q24 18 41.5 29t41.5 20.5t46 6t42 -19.5q32 -29 51 -72.5t17 -91.5z" />
    <glyph glyph-name="D" unicode="D" horiz-adv-x="481" 
d="M431 950q19 -102 18.5 -342.5t-15.5 -353.5q-29 -226 -124 -261q-59 -21 -116 34q-38 37 -50 85q0 -7 6 -30q9 -38 2 -38q-6 0 -21 17q-4 -59 -18 -79q-10 -14 -27 -4.5t-18 29.5q-44 -75 -44 31q0 27 3 65l-4 839q0 4 -1 34.5t-1 57.5t2.5 57.5t10 45t20.5 7.5
q-3 33 16 36q16 3 22 -19q3 -8 2 -19q-1 -14 3.5 -16t11 2.5t13 2.5t8.5 -16l4 -24.5t4 -26.5l3.5 -27t2 -26t-0.5 -25q-2 -3 -1.5 -117.5t2 -209.5t3 -209.5t1.5 -117.5q6 29 25 43q16 12 16 -15q0 -5 -1 -12q27 46 34 10q3 -14 1 -40q-1 -13 -7 -32l-10.5 -32.5
t-4.5 -29.5t8 -28q19 -30 49 33q45 95 57 263q3 36 4 72q1 115 -8 253.5t-23 175.5q-25 66 -60 104q-7 8 -10 10t-9.5 3t-11.5 2q-16 5 -16 22q-4 -4 -10.5 -8t-13.5 -6.5t-11.5 1.5t-2.5 16q2 20 21.5 31t23.5 20q-1 1 -10 3.5t-13.5 7t0.5 12.5q11 20 41 22q25 1 60 -12.5
t52 -33.5q39 -46 69.5 -109.5t43.5 -127.5z" />
    <glyph glyph-name="E" unicode="E" horiz-adv-x="438" 
d="M371 2q4 0 -31 16q-23 10 -41 15l19 1q74 2 80 6t12.5 10t5.5 7q-9 5 -5.5 21t7.5 36.5t7 39t-7 30t-35 9.5q-8 -1 -36 -1.5t-51 0t-36 -0.5l-70 -1l6 271l147 3q2 1 -2 6.5t-15.5 13t-26.5 11.5l13 1q51 2 58 6q5 4 11.5 10t5.5 7q-9 6 -5.5 21.5t7 37l6.5 41.5t-7 35
t-34 17q-7 1 -47 0.5t-47 -0.5l-60 3l-4 277l162 2l-15 9q-30 15 -57 23h19q73 2 80 7q5 3 12 9.5t5 7.5q-9 6 -4 18t11 31t10 37.5t-7.5 37t-39.5 29.5q-11 5 -51.5 7.5t-60.5 2.5l-70 -2q-5 123 -47 21q0 18 -7.5 28.5t-17 7.5t-15.5 -20q-7 -17 -10 -39l-26 -1
q-45 2 -59 -41q-12 -36 7 -58q8 -9 20 -9q6 0 4.5 -4.5t-4.5 -12.5t2 -18q14 -23 36 -11l-9 -844q0 -11 -1 -39t-0.5 -48.5t2.5 -38.5q2 -12 3.5 -18.5t2.5 -9.5t3.5 -1.5t4 4t6 7.5t8.5 9q9 -9 8.5 -44.5t12.5 -46.5q17 -14 23 10.5t5 46.5z" />
    <glyph glyph-name="F" unicode="F" horiz-adv-x="404" 
d="M189 1048l2 -243h114h13.5h19t17.5 -0.5t18 -2.5t13 -5q1 -1 3.5 -19t9 -37t20.5 -25q1 -1 -6 -6t-13 -8q-5 -3 -29 -6q10 -2 14 -5.5t2.5 -7t-5 -6.5t-7.5 -5t-5 -2l-172 -1l-10 -579q4 -10 -3 -34t-23 -41.5t-33 -7.5q1 -17 -9.5 -38.5t-28.5 -9.5q-15 9 -14 38.5
t-9 37.5q-5 -3 -9.5 -7.5t-7 -6.5t-5 -3t-3.5 1t-2.5 7.5t-3.5 15.5q-3 16 -3.5 33t1 40t1.5 32l5 520q-16 -5 -28.5 2t-4.5 25q1 2 2 5q3 3 2.5 5t-5.5 2q-24 0 -32 27t8 47q7 9 17 14q11 6 19.5 6.5t23.5 -0.5l3 246l-46 -1q-22 -7 -31 -5t-19 15q-3 4 -3 9t2 8.5l3.5 6
t1 4t-5.5 1.5q-26 -1 -32 30q-8 37 19 63q18 18 48 17l84 1q4 18 11 32q12 22 28.5 16.5t16.5 -29.5q46 85 52 -17l1058 1q106 0 181 2q35 0 70 -12q36 -12 -3 -28q5 0 34 -0.5t38.5 -1t34 -2t38.5 -3t33.5 -5t35.5 -8.5q49 -13 16 -30q-24 -11 -52 -11q66 -17 76 -21
q32 -14 -6 -24q-28 -8 -69 -9.5t-70 0.5q-461 4 -1401 3z" />
    <glyph glyph-name="G" unicode="G" horiz-adv-x="474" 
d="M422 630l2 -205q-3 -134 -13.5 -220t-32.5 -128q-44 -82 -135 -73q-45 -11 -81 9t-59.5 60.5t-40.5 98.5t-25.5 120t-12 129t-3 120.5t3.5 99.5q26 375 156 519q24 27 52 42.5t60 15.5t59 -22q32 -29 51 -72.5t17 -91.5q10 -22 8 -68q-2 -40 -20 -32q-3 1 -5 3
q3 -36 -8 -56q-8 -13 -20 0q-9 10 -10 44t-10 41q-23 -27 -33 -19t-10 30t-7.5 40t-26.5 10q-40 -17 -69.5 -114.5t-39.5 -219t-0.5 -246t39.5 -190.5q43 -92 84 -36q21 28 25 114l5 81q-10 0 -17.5 4t-7.5 15t13 25q-9 0 -20.5 -0.5t-17 -1t-15 1.5t-20.5 7q-22 10 -14 28
t28 24q-57 20 -57 52q1 15 5 25.5t11.5 15.5t13.5 7t14.5 3.5t9.5 1.5q32 9 87.5 10t86.5 -2z" />
    <glyph glyph-name="H" unicode="H" horiz-adv-x="600" 
d="M205 675q-8 197 1 331q1 24 -6.5 69.5t-8.5 60.5q-3 39 -13.5 42.5t-32.5 -17.5q-10 9 -8.5 45.5t-12.5 47.5q-18 14 -25.5 -11t-5.5 -47q-26 19 -33 -31q-4 -35 2 -57q-10 -30 -11 -81t2 -116t3 -84q-1 -75 -3.5 -132.5t-7 -127.5t-7.5 -132q-3 -75 -4.5 -124.5
t-5.5 -135.5q0 -10 -3 -54.5t-2.5 -55l2.5 -54.5q7 -71 38 -19q7 12 14 28q1 -29 17.5 -35.5t27.5 20.5q14 34 17 119q29 -40 39 39q4 35 4 105q0 32 4.5 87t8.5 94l4 39l207 1l11 -221q-4 -70 8 -124q11 -55 36 -20q3 -85 17 -119q11 -27 27.5 -20.5t17.5 35.5
q22 -53 37 -49q11 3 15 40l2.5 54.5t-2.5 55t-3 54.5q-4 86 -5.5 135.5t-4.5 124.5q-3 62 -7.5 132t-7 127.5t-3.5 132.5q0 19 3 84t2 116t-11 81q8 27 0 66q-7 39 -31 22q2 22 -5.5 47t-25.5 11q-14 -12 -13 -47.5t-8 -45.5q-22 21 -32.5 17.5t-13.5 -42.5q-1 -13 -7.5 -59
t-4.5 -71q7 -111 6 -331h-198z" />
    <glyph glyph-name="I" unicode="I" horiz-adv-x="201" 
d="M113 1176q50 102 56 -21q3 -49 -2 -117l-1 -928q4 -12 -1 -40.5t-20 -49.5t-34 -10q3 -22 -5 -46.5t-27 -10.5q-13 9 -14.5 27.5t-1.5 37t-10 26.5q-8 -7 -15 -21q1 3 -3 30q-6 35 -1 125l7 857q0 10 -6 32q-4 18 -2 18.5t12 -11.5q4 83 20 118q12 26 29.5 19.5
t18.5 -35.5z" />
    <glyph glyph-name="J" unicode="J" horiz-adv-x="414" 
d="M41 1179q-31 -11 23 -32l8 -3q-12 0 -32 0.5t-62 -4.5t-63 -18q-25 -16 30 -31q50 -13 70 -12q-8 -13 -8 -22t4.5 -13.5t14 -7t16.5 -2.5h16h9q35 -1 75 -1t74 1l33 1q0 -50 1.5 -250t3 -377.5t-0.5 -209.5q-1 -33 -23.5 -48.5t-46.5 -6.5q-25 10 -40 31.5t-19 46.5
t-5.5 53.5t0.5 52.5q1 74 0 81q-3 31 -12.5 32t-29.5 -16q-10 8 -8 39.5t-8 44.5q-17 18 -25.5 -7t-8.5 -44q-35 26 -38 -116v-7q-2 -42 4 -90.5t20 -93.5t37.5 -82t51.5 -54q31 -19 76 -25t78 0q40 8 70.5 42t44.5 79q5 17 8 39.5t4.5 39t3 54l2.5 60.5q0 9 1 108
t1.5 207.5t0 232t-1.5 189.5l175 -2h-49v0h1h1h1h1h1h1h1h1h1h1h1h1h1h1h1h1l1 -1h1h1h1h1h1h1h1h1h1h1h1h1h1h1h1h1h1h1h1h1h1h1h1h1h1h1h1h1h1h1h1h1h1h1h1h1h1h1h1h1h1h1h1h1h1h1h1h1h1h1h1h1h1h1h1h1h1h1h1h1h1h1h1h1h1h1h1h1h1h1h1h1h1h1h1h1h1h1h1h1h1h1h1h1h1h1h1h1
h1h1h1h1h1h1h1h1h1h1h1h1l1 -1h1h1h1h1h1h1h1h1h1h1h1h1h1h1h1h1h1h1h1h1h1h1h1h1h1h2q29 -1 69.5 0t69.5 9q60 16 -62 43q-7 2 -9 2q36 0 58 15t-21 27q-17 4 -36.5 7.5t-33 5.5t-38.5 3.5t-34 1.5t-38 0.5t-35 0.5q50 20 -19 31q-29 4 -48 4z" />
    <glyph glyph-name="K" unicode="K" horiz-adv-x="491" 
d="M417 246q1 -5 11 -28q50 -108 29 -127q-11 -10 -38 -1q7 -48 -1 -73q-2 -8 -9 -16t-16 -12t-18 1t-15 22l-201 401l3 -138q0 -3 0.5 -24t0.5 -40.5t-1 -48t-4.5 -52t-9 -46t-15.5 -38t-24 -19.5q-17 -6 -26 6.5t-11 36.5q-1 -1 -4.5 -23t-9 -32t-15.5 -4q-10 7 -15 39
q-7 44 -5 147l-2 891q1 4 0 22q-2 97 18 98q5 0 10 -4q-2 22 3.5 47.5t20.5 12.5q13 -10 13.5 -47.5t9.5 -45.5q23 27 40.5 18t19.5 -54q1 -29 -1 -87t-2 -63q-1 -71 -4.5 -115t1.5 -116q143 314 180 382q4 7 12 31q17 49 27 49q9 0 18 -27q12 16 39.5 13t22.5 -25
q-1 -3 -3 -7q104 2 -213 -571l-3 -6z" />
    <glyph glyph-name="L" unicode="L" horiz-adv-x="454" 
d="M180 191l-1 137l-5 629q0 15 1.5 48t1.5 48.5t-1 48.5q-2 47 -11.5 55.5t-36.5 -14.5q-10 8 -10.5 45t-16.5 47q-18 13 -24 -12.5t-4 -47.5q-25 15 -31 -30q-1 -8 -1 -78v-7l2 -882q-3 -102 5 -145q2 -9 3.5 -15t5.5 -13.5t9 -10.5q11 -6 18 4t11 31.5t5 23.5
q2 -26 13.5 -43t30.5 -10l175 -5q34 3 41.5 20.5t-11.5 53.5q1 1 6 0.5t14.5 1t18.5 4.5t17.5 11t13.5 19q9 24 -10 32.5t-35 4.5q5 17 -11.5 28t-44 14.5t-58 5.5t-52.5 0.5t-28 0.5z" />
    <glyph glyph-name="M" unicode="M" horiz-adv-x="680" 
d="M50 24q-20 4 -19.5 246t9 477t11.5 250q2 10 5 42.5t8 56.5t14 37q-5 23 2 31.5t18.5 9t12.5 3.5q2 24 17.5 28.5t21.5 -19.5q26 71 69 -4q24 -43 32 -82l92 -464q5 15 37.5 160t62.5 261t41 109q0 15 12 21t26 1.5t17 -16.5q37 77 73 3q18 -36 23 -75q13 -99 14.5 -331
t-3.5 -414l-6 -182q6 -49 -4 -112q-10 -61 -35 -54q-2 0 -4 1q2 -18 -6.5 -29.5t-21.5 -2.5q-7 6 -10 39q-1 12 -4 12q-1 0 -3 -1q-26 -16 -37 -0.5t-11 57.5l19 758q-5 -32 -31.5 -147.5l-51.5 -215.5l-24 -99q-12 -52 -14 -56q-11 -29 -28 -3q-21 -62 -38 -58
q-6 1 -10.5 11.5t-10.5 10.5t-10.5 -4.5t-10 -3.5t-9.5 14q-18 50 -50.5 247.5t-42.5 272.5q-10 -50 -12 -350q-3 -320 -24 -363q-6 -12 -13 -8q-12 -48 -27 -64q-11 -11 -24.5 -5t-10.5 26q-2 -2 -8 -9.5t-11 -10.5t-12 -2z" />
    <glyph glyph-name="N" unicode="N" horiz-adv-x="540" 
d="M341 75q10 -37 24.5 -54t39.5 -3q5 3 6 -6q1 -3 1 -10q2 -28 10 -34q20 -13 36 0t14 32q4 -2 13 193t13.5 445.5t-4.5 488.5q-3 82 -24 106q-19 20 -45 -35q-4 13 -17.5 17.5t-25.5 -2t-12 -21.5q-11 7 -12.5 -144t3.5 -305l4 -155q-26 137 -79 339q-87 325 -135 307
q-12 -4 -21 -28q-5 20 -14 19q-13 -1 -15 -28q-1 -3 -12.5 -4t-18.5 -9.5t-2 -31.5q-9 -13 -14 -37t-8 -56.5t-5 -42.5q-2 -14 -8 -257t-3 -492.5t23 -252.5q7 -2 11.5 1t10.5 11t9 10q-3 -20 10.5 -26.5t23.5 5.5q15 16 27 63q42 -27 29 451l-9 249q97 -438 176 -703z" />
    <glyph glyph-name="O" unicode="O" horiz-adv-x="502" 
d="M240 0q-38 3 -69 23t-53 47t-39 71.5t-27 84t-16.5 98.5t-9.5 100t-3 103.5t0.5 94t2.5 86.5q1 37 1 52q6 255 78 361q17 24 41.5 47.5t45.5 33.5q6 2 18.5 3.5t26 0t19.5 -10t-2 -26.5q8 2 24.5 -1t29.5 -14t4 -29q-8 -14 -26.5 -15.5t-35 -3.5t-20.5 -17
q14 -18 15.5 -31t-3.5 -20t-19 -21t-22 -25q-36 -53 -51 -173q-5 -40 -6 -109t4 -150t14.5 -153t29 -122t45.5 -55q23 -4 40 2t27 20t15 26.5t9.5 30.5l5.5 22q32 85 38 266.5t-24 288.5q-9 28 3 54q10 25 29 3q-2 26 -25 70.5t-21 74.5q3 39 24 23q14 -12 21 -32q0 3 -3 18
q-13 80 3 81q4 0 9 -4q30 -23 55 -116q16 -62 28 -149.5t17 -189.5t1.5 -205.5t-20.5 -198t-44.5 -167t-75 -113t-109.5 -35.5z" />
    <glyph glyph-name="P" unicode="P" horiz-adv-x="475" 
d="M434 917q14 -68 18.5 -125.5t-6 -122t-39.5 -119.5q-24 -46 -61 -66t-74 -13t-71 33.5t-55 68.5q0 -3 2 -37q25 -496 -15 -453q-4 -59 -18 -79q-9 -14 -26.5 -4.5t-17.5 29.5q-45 -74 -44 32q0 26 3 64l-5 785q1 2 -0.5 37.5t-1 68.5t2.5 69.5t10 56t21 11.5q-3 34 16 37
q15 2 22 -19q2 -9 2 -20q-1 -14 3.5 -16t10.5 2.5t12.5 2.5t8.5 -15v-332q6 29 25 43q15 12 15 -15q1 -6 0 -12q27 46 33 10q3 -14 1 -40q0 -7 -3 -31t-3.5 -34t2 -27t9.5 -30q33 -56 71 -43.5t48 81.5q16 117 -39 265q-4 9 -15.5 46t-22.5 62.5t-23 37.5q-7 8 -9.5 10
t-9.5 3t-11 2q-16 5 -17 22q-4 -4 -10 -7.5t-13 -6.5t-11.5 1.5t-2.5 16.5q2 19 21 30t24 21q-2 1 -10.5 3t-13 6.5t0.5 13.5q10 19 41 21q25 1 60 -12t52 -33q35 -42 66 -124t47 -156z" />
    <glyph glyph-name="Q" unicode="Q" horiz-adv-x="529" 
d="M277 251q-8 -14 -16.5 -18t-30.5 0q-26 5 -45.5 55t-29 122t-14.5 152.5t-4 149.5t6 110q4 32 8 54t9.5 39.5t9 26t12 26t12.5 27.5q7 14 19 27.5t18.5 20t5.5 19t-14 30.5q3 15 20 17t35.5 3.5t25.5 15.5q10 17 -3 28.5t-29.5 14.5t-24.5 1q7 17 1.5 25.5t-19 10.5
t-26.5 0.5t-18 -4.5q-21 -9 -45.5 -32.5t-41.5 -47.5q-73 -107 -78 -361q0 -16 -1 -53q-2 -54 -2.5 -85.5t-0.5 -94t3 -103.5t9.5 -100t16.5 -98.5t27 -84t38.5 -72t53 -47t69.5 -22.5q68 -6 116 49l14 -31.5t21 -40.5t22 -24q8 -5 16 -4.5t13.5 13.5t8.5 36q11 -16 23.5 -4
t13.5 30q1 8 -5.5 25.5t-13.5 32.5t-16.5 33.5l-11.5 22.5q42 115 51.5 301t-6 350t-43.5 269q-25 93 -55 115q-21 16 -18 -27q1 -16 6 -49q3 -15 3 -18q-10 27 -27 35q-13 6 -17 -18q-1 -3 -1 -8q-2 -30 21 -74.5t25 -70.5q-22 25 -31 -9q-8 -26 -1 -49q19 -64 34.5 -171
t18.5 -212t-14 -171q0 -2 -3.5 0.5t-9 11.5t-9.5 24q-19 71 -40 73q-16 2 -26 -44q-9 18 -19.5 11.5t-13.5 -24.5q-2 -11 3 -26.5t11 -26.5l5 -11q-23 4 -22 -9q0 -10 21 -62z" />
    <glyph glyph-name="R" unicode="R" horiz-adv-x="448" 
d="M367 96zM233 468q44 -13 85 9t69 74q22 41 31.5 86.5t6 97.5t-9 89.5t-18.5 96.5q-13 53 -23 87t-29.5 76.5t-43.5 71.5q-17 20 -52 33t-60 11q-31 -2 -41 -21q-5 -8 -0.5 -12.5t13.5 -7t10 -3.5q-4 -10 -23.5 -21t-21.5 -30q-2 -12 2.5 -16t11.5 -1.5t13.5 6.5t10.5 7
q0 -17 16 -21q5 -2 10 -2.5t6.5 -1t5 -3t9.5 -8.5q35 -38 60 -105q55 -147 39 -264q-10 -69 -47.5 -81.5t-70.5 43.5q-26 44 -19 122q4 57 -12 54q-9 -1 -22 -25q3 32 -9 31q-13 -2 -26 -31q-4 -8 -5 -16q-1 63 8 161q0 8 2.5 30t3.5 35t1.5 31.5t-2 32.5t-8.5 16.5
t-12 -1.5t-10.5 -3t-3.5 12q2 26 -14 31q-14 3 -17 -15q-2 -6 -1 -14q-10 6 -16.5 -6t-8 -36t-2 -46t0.5 -46.5t1 -26.5l11 -837q-12 -139 16 -125q10 5 24 29q1 -20 18.5 -29.5t26.5 4.5q14 20 18 79q34 -37 26 188q-1 36 -5 94q-1 31 -1 36q4 -9 18 -43q156 -359 183 -358
q7 1 7 21q5 -18 23.5 -20.5t24.5 13.5q9 25 1 83q41 -23 -111 260z" />
    <glyph glyph-name="S" unicode="S" horiz-adv-x="421" 
d="M382 220q-38 -91 -93 -158t-112 -85q-17 -5 -36 5.5t0 32.5q-61 -8 -94 23q-16 16 -8 31t26 14q-59 52 -36 73q9 9 29 8q10 0 30 -2t30.5 -1.5t26.5 2.5t28 10.5t23 22.5q23 30 39 80t18 101t-18 89q-22 38 -76 108.5t-91 112.5q-43 50 -52.5 121t10 136.5t58.5 118.5
q59 80 134 114q40 18 60 10q13 -5 6 -24q14 5 35 -2t9 -28q-5 -10 -27 -29.5t-26 -32.5q30 -37 30 -49t-27 -30q-10 -7 -34.5 -18.5t-35.5 -18.5q-21 -13 -33 -27q-17 -21 -25.5 -46.5t-2.5 -60t31 -66.5l27.5 -37.5t40 -50t39.5 -37.5q62 -51 94 -123.5t31 -146t-28 -140.5
z" />
    <glyph glyph-name="T" unicode="T" horiz-adv-x="526" 
d="M245 1180q41 102 47 -21l118 2q60 2 73 -10q2 -1 4 -20.5t8 -40.5t18 -28q1 -1 -5.5 -7t-11.5 -10q-3 -2 -26 -7q11 -3 14 -8.5t-1 -10t-8 -8t-6 -4.5l-171 -3l-1 -915q3 -12 -3 -41t-20.5 -49.5t-29.5 -9.5q1 -22 -5.5 -46.5t-22.5 -10.5q-13 11 -12.5 46.5t-8.5 44.5
q-4 -4 -8.5 -9.5t-6.5 -7.5t-4 -3.5t-3 1.5t-2.5 9t-3.5 19q-2 18 -2.5 38.5t0.5 48.5t1 38l9 845l-86 3q-21 -9 -29 -6.5t-16 18.5q-3 5 -3 11t1.5 10t3 7.5t1 5t-4.5 1.5q-24 -1 -29 31q-7 37 18 62q17 16 43 15l121 -3q3 22 10 39q6 17 15.5 20t17 -7.5t7.5 -28.5z" />
    <glyph glyph-name="U" unicode="U" horiz-adv-x="503" 
d="M479 932q-3 -44 -6 -192.5t-8 -270.5t-27 -247t-61 -169q-28 -31 -76 -45t-97 -7t-79 33q-24 20 -42.5 55.5t-29 80t-16 81.5t-9.5 80q-7 78 -9.5 338.5t2.5 338.5v10q2 169 34 138q-1 36 10 60q8 18 20 1q10 -14 7.5 -53t6.5 -49q18 22 27 20.5t12 -38.5q2 -31 -3 -141
q-4 -106 3.5 -332.5t22.5 -306.5q3 -18 14 -37t26 -32.5t31 -19t32 3t26 32.5q12 27 27 86q9 35 17 361q7 306 23 306q2 0 4 -4q1 11 2 33.5t1.5 36.5t3.5 32.5t7 33.5q10 33 25 17q11 -12 13 -36q1 2 3 14t4 20.5t7.5 17.5t13.5 11q13 4 22.5 -29.5t12.5 -79t4.5 -90
t-1.5 -62.5z" />
    <glyph glyph-name="V" unicode="V" horiz-adv-x="461" 
d="M420 1190q12 -6 5 -88.5t-24.5 -203t-42.5 -261t-49 -262.5t-44.5 -208t-28.5 -97q6 -23 -1 -31.5t-18.5 -9.5t-13.5 -4q0 -16 -12.5 -24t-26 -4t-16.5 20q-17 -65 -43 -12q-18 36 -22 74q-11 116 -26 460t-27 485q0 2 -2 18t-3 30.5t-2.5 34.5t-0.5 35.5t3.5 29t9 18.5
t16.5 1q-2 18 7 29.5t21 2.5q8 -6 11 -40q1 -12 4 -12q1 0 3 1q28 17 48 -4t15 -60l27 -669l73 522q1 5 6 35q22 157 42 158q7 0 13 -13q16 45 33 59q11 10 24.5 1.5t8.5 -28.5q3 2 8 7l7.5 7.5t8 4.5t9.5 -2z" />
    <glyph glyph-name="W" unicode="W" horiz-adv-x="724" 
d="M690 1190q24 -9 -32.5 -361t-80.5 -463q-22 -96 -34 -167q-2 -10 -5 -42.5t-8 -56.5t-14 -37q5 -23 -2 -31.5t-18.5 -9.5t-12.5 -3q-2 -24 -17.5 -28.5t-21.5 19.5q-29 -79 -50 37q-2 11 -5 31q-3 17 -4 22q-12 61 -34.5 262.5t-32.5 257.5q-6 -21 -32.5 -180.5
t-52.5 -295.5t-37 -129q1 -15 -7.5 -21.5t-18 -2t-12.5 17.5q-42 -87 -61 17q-3 20 -6 48q-12 129 -38 480t-34 440q-2 11 -0.5 40.5t4 60.5t13 51.5t26.5 12.5q-2 18 6.5 29.5t21.5 2.5q8 -6 9.5 -26.5t7.5 -23.5q27 15 38 -0.5t10 -56.5q-1 -64 3.5 -234.5t9.5 -308.5
l6 -139l25.5 210t33.5 236q0 3 2 13q15 76 32 76q8 0 18 -15q23 70 44 72q10 2 17 -14q6 -13 13 -13.5t12.5 5.5t12.5 4.5t13 -17.5q7 -22 11.5 -48.5t7.5 -63.5t5 -51q4 -32 12.5 -128.5l15.5 -177.5l7 -81q11 56 38 272t34 259q19 112 20 116q22 98 44 76q3 -3 5 -7
q12 48 27 64q10 11 24 5t11 -26q2 2 8 10.5t11 11t12 0.5z" />
    <glyph glyph-name="X" unicode="X" horiz-adv-x="436" 
d="M149 220zM319 756q-7 -17 -16.5 -46.5l-16.5 -50.5l-6 -21q5 -75 17 -109q29 -76 78.5 -257.5t18.5 -170.5q13 -50 9 -76q-2 -11 -13.5 -21.5t-22.5 -11.5t-17 11q-12 -59 -54 107l-16 66q-4 15 -5 21q-8 31 -18 65l-23.5 77t-19.5 65q-2 -6 -12 -61q-55 -298 -78 -299
q-4 0 -7 8q-18 -46 -36 -59q-11 -10 -23.5 -0.5t-6.5 28.5q-40 -28 -38 32q1 61 29 133q4 10 7 16l51 194l49 215l-22 78q-1 3 -10 32.5l-15 50.5l-17 59.5l-19 67t-17 65.5t-14.5 63.5t-9.5 51.5t-3 39.5t7 17.5q-14 29 4 42q15 10 26 -8q3 -6 5 -13q3 -11 6.5 -12.5t7 4
t7.5 11t9 8t12 -4.5q10 -11 16 -28.5t12 -44t8 -34.5q7 -23 36 -140t37 -145q12 34 42.5 161t37.5 152q25 81 43 81q7 0 13 -8q4 18 15 25t21 -9q4 -12 4 -16.5t-3.5 -15.5t-4.5 -16q0 -7 4 -8t9.5 0t11.5 -0.5t9 -8.5q5 -16 -9 -57q-8 -23 -42.5 -143.5t-46.5 -151.5z" />
    <glyph glyph-name="Y" unicode="Y" horiz-adv-x="495" 
d="M151 47l8 524q-12 26 -62.5 219t-66.5 280q-1 9 -2.5 18t-3 25.5t-1 30t2.5 26t8 18t16 2.5q-6 29 6 45q8 9 21 0q8 -7 12 -31t11 -27q27 26 43 9t8 -58l86 -407l81 320q13 69 24 79t24 -14q1 6 5 26l7 34t10 27.5t16 17.5q11 4 12.5 -16t-2.5 -37q1 2 8 11t12.5 13
t13.5 4q70 -1 -87 -445l-62 -168l-5 -482q6 -22 -8 -61q-15 -42 -38 -25q2 -22 -4.5 -46.5t-22.5 -11.5q-14 11 -13 46.5t-8 44.5q-9 -8 -13 -11t-11 -7t-11 -2.5t-8 8.5t-6 21z" />
    <glyph glyph-name="Z" unicode="Z" horiz-adv-x="468" 
d="M409 24q2 -3 7.5 -9.5t8 -12t2.5 -14.5l-263 14q-7 -4 -20.5 -9t-18.5 -5q-11 2 -15 15q0 14 -4 18t-13 -1q-8 4 -14.5 26.5t-1.5 32.5q-42 -7 -39 25q2 25 28 58l224 843q-33 12 -65.5 17t-73.5 7.5t-68 6.5l-10.5 1t-15 2.5l-12 4t-11 8t-3.5 13.5q-1 6 -6.5 26.5
t-1.5 35.5q5 19 19 16q5 -1 6 8t-0.5 20.5t-1.5 13.5q5 31 47 10l274 -53l-2 -18q-2 -7 0 -8q7 -3 14 -15q9 -16 7 -36q8 -7 9 -19.5t-2.5 -22.5t-3 -18t8.5 -8q16 0 19.5 -17.5t-5.5 -33.5l-223 -790l155 -13q11 4 21.5 1t11.5 -21q1 -6 1.5 -11t0.5 -7.5v-4.5t0.5 -2.5
l0.5 -0.5h1.5t3.5 -0.5t5.5 -2t6.5 -3.5q13 -7 21 -34t-9 -33z" />
    <glyph glyph-name="underscore" unicode="_" horiz-adv-x="44" 
d="M-94 -210q67 -17 77 -21q31 -14 -6 -24q-32 -9 -78 -10t-79 1q-99 2 -553.5 4.5t-575.5 2.5q-239 0 -907.5 8l-750.5 9l-531 -2q-62 3 -74 19q-6 7 4 15q-32 -1 -78 8q-43 9 -21 23q31 20 76.5 23t81.5 -1q-1 1 -16 4t-24 7.5t-2 11.5q3 3 8 4.5l8.5 2.5t10 1.5t8.5 0.5
h547q164 -2 467.5 4.5t382.5 6.5q83 1 456.5 1.5t415.5 0.5h239t427.5 0.5t239.5 1.5q36 0 71 -12q36 -12 -3 -28q5 0 34.5 -0.5t38.5 -1t34 -2t39 -3.5l33.5 -5t35.5 -8q50 -14 16 -30q-24 -12 -52 -12z" />
    <glyph glyph-name="grave" unicode="`" horiz-adv-x="170" 
d="M103 1017q-7 -5 -14.5 -39.5t-15.5 -35.5q-13 -2 -18 6.5t-5 22.5t-7 39t-23 48q-8 12 -10.5 45t6.5 59.5t29 20.5q-3 16 8 25.5t25 1.5q8 -4 10.5 -9.5t2.5 -14t1 -13.5q2 -6 10 -3.5t17 6.5t17 -1q12 -9 11 -45q-2 -80 -44 -113z" />
    <glyph glyph-name="a" unicode="a" horiz-adv-x="567" 
d="M556 88q3 -6 -4 -11t-14 -7q-13 -4 -14.5 -5.5t-0.5 -6t-4 -15.5q-4 -10 -16 -17t-23 -6q-5 2 -8 1t-3 -1.5t-2.5 -3.5t-6.5 -7q-36 -30 -51 51q-2 9 -4 25q-2 14 -3 18q-42 -54 -103.5 -80.5t-127 -14.5t-110.5 67q-33 40 -47 91.5t-10.5 106.5t15 104t31.5 100
q15 39 31 73.5t43 77t56 70t68.5 43t82.5 7.5q44 -9 83 -40.5t56 -72.5q3 -7 16.5 -31.5t16.5 -39.5q3 -17 -2 -37t-22 -9q4 -20 -6 -48q-8 -25 -24 -10q-9 8 -11.5 41.5t-15.5 38.5q-18 -22 -28.5 -18.5t-22.5 22t-21.5 40t-26 35t-35.5 6.5q-29 -11 -54 -39t-42.5 -66.5
t-28.5 -71t-19 -67.5q-6 -27 -9.5 -58t-2.5 -68.5t15.5 -66.5t41.5 -39q30 -11 60.5 8t49.5 48q1 3 7 15q21 51 36 51q9 0 17 -13q1 4 2.5 21.5t4 36t6 36.5t10.5 28.5t17 7.5q15 3 20.5 15t16.5 14q13 4 21 -17.5t11 -22.5q21 4 31.5 0t12 -15t0 -23t-5 -29.5t-3.5 -28.5
q-2 -65 53 -193z" />
    <glyph glyph-name="b" unicode="b" horiz-adv-x="558" 
d="M519 467q67 -240 -16 -379q-38 -63 -103 -82.5t-130 3.5t-111 77q-5 -12 -14 -13.5t-18 8.5q-3 -55 -17 -82q-11 -21 -26 -15.5t-16 27.5q-42 -78 -54 7q-6 44 -3 91l11 764q0 13 -3.5 65.5t-3 93t9.5 64.5q-7 17 7.5 48.5t37.5 18.5q-1 17 5.5 36t22.5 9
q14 -9 13.5 -36.5t8.5 -33.5q3 2 8.5 6.5t9 7t8 3.5t7.5 -2.5t6 -12.5q6 -19 5 -62l-3 -711q16 10 22.5 -3t4.5 -28q27 33 39 22.5t8 -53.5q-5 -33 -0.5 -50t25.5 -44q32 -37 64 -35t56.5 24.5t29.5 49.5q11 72 1 124t-42 117q-34 68 -83 107q-9 8 -13 10t-13.5 3t-15.5 3
q-21 4 -22 22q-27 -19 -44 -15q-11 3 -8 18.5t15 23t26.5 13.5t20.5 16q-2 1 -14 3.5t-18 7t0 13.5q15 19 57 21q61 3 116 -46q102 -92 146 -224z" />
    <glyph glyph-name="c" unicode="c" horiz-adv-x="537" 
d="M504 613q10 -18 8 -56q-2 -40 -28 -25q3 -19 -4.5 -40.5t-25.5 -6.5q-10 9 -11.5 37t-11.5 33q-24 -17 -32.5 -13t-13 21.5t-6 37t-10.5 33t-26 9.5q-39 -11 -73.5 -45.5t-55 -71.5t-36.5 -80q-14 -36 -21.5 -82t-2.5 -96.5t29 -78.5q28 -32 86 -45q50 -11 60 -19
q18 -12 -4 -30q4 -1 26 -2q83 -3 83 -20q0 -10 -21 -24q3 1 11 4.5l16.5 7t17.5 6t14.5 0.5t6.5 -10q0 -12 -8 -25t-19.5 -21.5t-21.5 -11.5q-11 -3 -22.5 -4.5t-24.5 -2t-24 -0.5t-26 1t-25 2t-27.5 2.5t-26.5 2.5q-118 26 -182.5 106.5t-52.5 199.5q11 109 73.5 230
t145.5 183q29 21 59 33.5t66 14.5t65 -18q36 -24 57 -60t19 -76z" />
    <glyph glyph-name="d" unicode="d" horiz-adv-x="589" 
d="M548 464q2 -49 3 -239q1 -100 -6 -127q-9 -37 -31 -12q-3 -68 -17 -95q-11 -21 -27 -15.5t-16 28.5q-43 -79 -50 9q-3 37 0 83q-34 -42 -82 -67.5t-101 -27.5t-102 27q-37 23 -62 60.5t-34.5 79t-11 88t8.5 86.5q41 202 144 331q50 62 127 74q19 3 56 -13q42 -18 13 -33
q16 -7 30.5 -25t-6.5 -28q-7 -2 -34 9.5t-33 4.5q6 -14 3.5 -27t-20.5 -19q-4 -1 -9 -3t-9 -4.5t-9 -6.5t-8 -7t-7.5 -8.5t-7 -8t-7.5 -9l-6.5 -8.5t-6 -8.5t-4.5 -7.5q-86 -123 -93 -247q-1 -26 3.5 -54.5t15.5 -56t34.5 -39.5t54.5 0q28 10 48.5 34t29.5 54q1 1 2 4
q3 12 6 19t9 16.5t13.5 9t16.5 -11.5q1 2 2 17q8 98 31 98q5 0 11 -4l12 694q1 3 1 16q-1 78 22 78q5 -1 11 -4q-2 18 5 37.5t24 8.5q14 -9 13.5 -37.5t9.5 -35.5l8 8t10 9t9 2.5t10 -8.5q9 -15 9 -58q0 -48 -8 -172q-5 -71 -5 -161t1.5 -135.5z" />
    <glyph glyph-name="e" unicode="e" horiz-adv-x="518" 
d="M481 481q14 -22 15 -55q1 -30 -21 -27h-4q9 -21 5 -44q-4 -22 -24 -10q-12 8 -20.5 36.5t-19.5 33.5q-1 -2 -11 -20t-15 -20q5 -5 9 -11.5t6 -13t-1.5 -11.5t-14.5 -6q-54 -5 -164 -27q-2 -1 -6 -2q-19 -3 -27 -5.5t-15 -8.5t-6.5 -16t6.5 -27q15 -41 43 -64
q5 -5 38.5 -14.5t52.5 -22t2 -29.5q11 -1 34.5 0.5t42 0t33.5 -8.5q21 -10 13 -24.5t-28 -18.5q2 -1 21.5 -2t31 -6t6.5 -16q-8 -17 -45 -27q-77 -22 -164 -5q-79 15 -135 66t-81 121t-19 150q4 69 28 144.5t70.5 146.5t105.5 100q52 27 100 7t84.5 -64t56.5 -99.5
t17 -100.5zM311 392q5 0 6 3q-5 0 -6 -3zM356 415h10q-7 18 -16.5 72t-25.5 94t-45 53q0 2 1 13q0 -13 -24 -38.5t-27 -30.5q-55 -88 -67 -190q20 1 39.5 6.5t45 15.5t38.5 14q3 1 15.5 6t20.5 7t17.5 3t13.5 -5.5t4 -19.5z" />
    <glyph glyph-name="f" unicode="f" horiz-adv-x="284" 
d="M1925 868q66 -17 77 -21q31 -14 -6 -24q-32 -9 -78 -10t-79 1q-80 2 -227 -1t-203 -2q-165 0 -578 -4.5t-637 -2.5q11 -184 5 -426q-4 -179 -4 -196q-2 -125 -27 -118q-7 2 -14 13q0 -2 -1 -16.5t-1.5 -19t-1.5 -17.5t-2 -19.5t-3.5 -16.5t-5 -18.5t-6.5 -15.5
q-13 -25 -27.5 -14.5t-14.5 34.5q-1 -2 -3 -9q-15 -46 -28 -45q-5 0 -11 6q-11 14 -12 62q-1 39 4.5 110t5.5 94l24 613q-353 1 -408 4q-17 0 -53.5 22.5t-16.5 38.5q-32 -1 -78 8q-44 9 -21 24q31 19 76 22t82 -1q-2 1 -17 4t-23.5 8t-1.5 11q3 3 7.5 5t8 2.5t10 1t8.5 1.5
q21 3 129.5 3.5t206.5 0.5l98 -1q0 54 8 87q5 20 14 37t16 27.5t25 26t25.5 21l33.5 23.5q43 31 95 43t102 1q2 -1 14 -3q101 -15 101 -40q0 -5 -5 -11q19 0 45.5 -9t8.5 -26q-12 -11 -32 -10.5t-34.5 4t-29.5 -5.5l6 -6l8 -8t7.5 -8t2.5 -8.5t-7 -7.5q-12 -6 -44 -4
q-15 2 -45 7q-49 9 -73 7q-62 -6 -94 -44t-35 -97q165 -1 468.5 5t382.5 7q63 0 135.5 0.5t158.5 0.5h136q123 1 206 2q36 1 71 -12q35 -12 -4 -28q5 0 34.5 -0.5t39 -1t34.5 -1.5t39 -3t33.5 -5.5t35.5 -8.5q49 -13 16 -30q-24 -11 -52 -12z" />
    <glyph glyph-name="g" unicode="g" horiz-adv-x="621" 
d="M646 -199q25 -394 -146 -508q-26 -18 -57.5 -28.5t-60 -16t-67.5 -4t-65.5 3.5t-70 12.5t-66 16.5t-68 21.5t-60.5 21l-59 21.5q-52 19 -166.5 68t-203 79.5t-173.5 44.5q-145 23 -215 -47q-4 -3 -18 -26q-50 -77 -67 -77q-9 0 -12 18q-11 -24 -29 -82t-33 -87
q-20 -39 -32 -6q-8 21 -4 45q-1 -1 -3 -9q-25 -67 -39 -68q-5 0 -9 11q-6 16 -7 34.5t3.5 43.5t7 35.5l9.5 38.5q63 237 156 308q32 25 68.5 41t71 24t77 7t75.5 -4t79.5 -16t76.5 -22.5t77 -29l71.5 -30t69.5 -31.5q15 -7 22 -10q31 -14 93.5 -48.5l114.5 -62.5t120 -55
t122.5 -37t109.5 3.5t93 56.5q83 93 68 311q-9 128 -51 351q-29 -43 -72.5 -73.5t-91.5 -43t-98.5 0.5t-88.5 52q-126 130 -33 403q112 311 277 302q50 -3 96 -37.5t65 -80.5q3 -7 17 -32t17 -41q3 -17 -2 -37t-22 -9q3 -21 -6 -49q-9 -27 -26 -11q-9 8 -11.5 42.5
t-15.5 39.5q-19 -23 -29.5 -19.5t-23 23t-22 41t-26 35.5t-36.5 7q-30 -11 -55.5 -40t-43 -68t-28.5 -72.5t-20 -69.5q-6 -27 -9.5 -59t-2.5 -70.5t15.5 -68t42.5 -39.5q31 -11 62 8t50 50q2 3 7 15q22 52 38 52q8 0 17 -13q5 18 8.5 54.5t6.5 52.5q3 10 6 16t7.5 6.5
t7.5 -0.5t10.5 -4.5t12.5 -4.5q-2 11 7 29t21 12q18 -9 27 -55q18 8 28 5t13 -13.5t4 -24.5t0 -28q-2 -88 15 -153l31 -104t35.5 -130t15.5 -108z" />
    <glyph glyph-name="h" unicode="h" horiz-adv-x="562" 
d="M521 476q11 -88 5 -236q-4 -123 -13 -155q-11 -37 -28 -15q-2 -22 -5.5 -29.5t-18.5 -26.5q-13 -15 -24.5 -6.5t-11.5 26.5q-1 -2 -4.5 -10t-7 -14t-8 -12t-10 -6t-10.5 8q-10 12 -9 49q0 25 5.5 71t6.5 63l7 75t6 84t-0.5 74t-13 80.5t-31.5 68.5q-22 35 -48.5 38.5
t-48 -13.5t-43.5 -49q-20 -30 -30 -69t-11 -69.5t-1.5 -89.5t-2.5 -96v-9q-3 -165 -35 -148q-4 2 -8 7q0 -11 -1 -17t-1.5 -8.5t-5 -10t-7.5 -14.5q-10 -20 -25 -15t-16 27q-7 -13 -13.5 -22t-13.5 -14t-13 2t-8 27l-2.5 42t2 41.5t3.5 41.5l13 754v27.5t0.5 32l1.5 29.5
t2.5 32t5 28t8.5 28q-8 14 -1.5 47t29.5 20q-1 16 5.5 35t22.5 8q14 -9 12.5 -36t7.5 -34q21 16 35 13t16 -32q2 -27 -3 -99q-7 -87 -6 -304q52 45 103 54.5t90.5 -12t71.5 -62.5t52.5 -93t27.5 -107z" />
    <glyph glyph-name="i" unicode="i" horiz-adv-x="217" 
d="M132 1072q-31 -24 -64 2t-43 62q-3 17 -4.5 46t8.5 53t29 18q-3 16 8.5 26t26.5 2q8 -5 10.5 -10.5t2.5 -14t1 -13.5q2 -6 10.5 -3.5t17.5 6.5t17 -1q13 -10 12 -46q-1 -2 -1 -15.5v-17.5t-1 -17t-2.5 -19t-3.5 -16.5t-5.5 -16.5t-8 -13t-10.5 -12zM169 586l6 -511
q-1 1 -1 2v-4v-7.5t-0.5 -9t-1.5 -9t-2.5 -8.5t-3.5 -6t-5.5 -3t-7 2t-9 8t-11.5 16q-4 -41 -19 -58q-9 -11 -27 -10.5t-19 18.5q-37 -39 -54 -10q-15 26 -1 64q1 2 2 5q4 7 8.5 129.5t6.5 240.5l3 118v13.5v32t2 43t5.5 39t11 29.5t18.5 6q-4 20 13.5 27.5t29.5 -8.5
q2 -2 3.5 -8t2 -11.5t2 -10.5t4.5 -5t10 5q33 26 35 -34q1 -17 -1 -51q-1 -29 0 -34z" />
    <glyph glyph-name="j" unicode="j" horiz-adv-x="264" 
d="M221 -234q0 7 2 137t1.5 258t-3 272t-12 234.5t-25.5 90.5q-9 1 -14.5 -4t-10.5 -15.5t-7 -13.5q-1 18 -16 23t-26 -9q-17 -21 -21 -79q-48 41 -40 -106q1 -11 1 -12q1 -74 4.5 -183.5t6.5 -190.5t2.5 -190.5t-7.5 -208.5q-4 -58 -7.5 -91t-12.5 -76.5t-26 -77t-43 -62.5
q-32 -37 -78 -52.5t-99.5 -10t-107 20t-114 42t-107.5 51l-101 52t-81 40.5q-7 3 -22 10q-45 21 -69.5 31.5l-71.5 30t-77 29t-76.5 22.5t-79.5 16t-75.5 4t-77 -7t-71 -24t-68.5 -41q-93 -71 -156 -308q0 -2 -1 -7q-6 -22 -9.5 -36t-7 -36t-2.5 -40t7 -33q13 -36 44 49
l7 17q-5 -32 7 -53q12 -19 29 14q15 29 33 87t29 82q7 -49 68 43q27 40 29 42q70 70 215 47q85 -14 173.5 -44.5t203 -79.5t166.5 -68q63 -23 113 -39.5t125.5 -34t135.5 -22t125 6t111 41.5q54 36 91.5 85.5t57.5 110.5t28 124.5t8 141.5zM167 1074q-30 -24 -62 1.5
t-42 60.5q-3 16 -4.5 44.5t8 52t29.5 17.5q-3 16 8 25.5t25 1.5q8 -4 10.5 -9.5t2.5 -14t1 -13.5q2 -6 10 -3.5t17 6.5t17 -1q12 -9 11 -45q0 -2 -0.5 -15t-0.5 -17t-1 -16.5t-2 -18t-3.5 -16t-5.5 -16.5t-7.5 -13t-10.5 -11z" />
    <glyph glyph-name="k" unicode="k" horiz-adv-x="465" 
d="M389 161q2 -5 19 -28q46 -63 32 -70q-5 -2 -19 1q4 -16 4.5 -27.5t-5.5 -27.5q-6 -12 -21 -16t-21 11q-9 -18 -17.5 -26t-16 -6t-13 6t-12 17.5t-10 21.5t-9.5 23q-1 4 -2 5.5t-2 4.5t-1.5 5t-1.5 4l-2 4l-130 210q0 -13 4 -90q3 -63 -14 -80q-10 -10 -26 6v-19
t-0.5 -22.5t-1.5 -18.5t-4.5 -22.5t-7.5 -16.5q-12 -17 -25 -9.5t-15 25.5q0 -1 -4 -18t-10.5 -24.5t-16.5 -2.5q-12 5 -17 30q-8 32 -6 110l12 951q0 3 -0.5 17t0 26.5t3 26.5t9 17.5t19.5 0.5q-3 16 3 35.5t23 9.5q15 -8 15.5 -36t9.5 -34q26 18 37.5 11t13.5 -43l-8 -438
l111 65q4 3 15 13.5t18.5 15.5t18 9.5t20 -1.5t17.5 -22q14 13 47 10q29 -6 18 -24q16 -13 17.5 -26.5t-10 -26.5t-25.5 -24l-30 -24t-22 -21l-168 -126z" />
    <glyph glyph-name="l" unicode="l" horiz-adv-x="206" 
d="M99 1152q43 80 62 -6q12 -54 8 -109l-1 -947q3 -10 -6.5 -34t-28 -41.5t-36.5 -7.5q1 -7 0 -16.5t-4 -19.5t-9.5 -14t-16.5 2q-15 9 -14.5 38.5t-9.5 37.5q-10 -7 -13 -17l-1 1q0 9 -3 23q-5 29 -1 105l7 887q0 8 -5 27q-4 14 -3 15q2 2 12 -9q3 69 18 98
q11 22 27.5 16.5t17.5 -29.5z" />
    <glyph glyph-name="m" unicode="m" horiz-adv-x="837" 
d="M801 476q14 -90 8 -238q-4 -96 -13 -122q-11 -33 -31 -8q0 -2 -1.5 -13t-2 -15t-2 -14t-3 -15.5t-4 -13t-6 -13.5t-7.5 -11q-14 -14 -26 -5.5t-12 26.5q-1 -1 -7.5 -17t-13.5 -22t-17 0q-14 9 -15 46q0 19 2 39t5.5 44.5t4.5 38.5q2 15 6.5 63.5t6.5 74t3 71t-2.5 75.5
t-13 65.5t-25.5 62.5q-42 74 -88 39q-37 -29 -48 -102q-4 -25 -2 -48q0 -7 -0.5 -17.5t-1.5 -43t-3 -62.5l-4.5 -68.5t-5.5 -68.5t-7 -55.5t-9 -36.5t-10 -4q0 -2 -1.5 -13t-2 -15t-2 -14t-3 -15.5t-4 -13t-6 -13.5t-7.5 -11q-14 -14 -26.5 -5.5t-11.5 26.5
q-2 -2 -5.5 -10.5t-7.5 -14.5t-9 -12t-10.5 -5.5t-11.5 8.5q-10 14 -9 55q1 28 7.5 79t8.5 74q0 15 4 62.5t6 77t0.5 76t-8.5 78t-23.5 63.5t-42.5 51q-11 8 -20 11t-18 0t-14.5 -5t-13.5 -12.5t-11 -15t-12 -19.5t-11 -19q-32 -52 -35 -146q-1 -34 1 -96t2 -84q0 -3 1 -17
q10 -146 -22 -147q-7 0 -15 6q-3 -41 -17 -59q-8 -12 -25 -11t-18 18q-50 -59 -51 27q0 20 2 46l28 512q0 2 -1.5 24.5t-1 40.5t3 38.5t11.5 29.5t24 4q-4 24 16 28q20 3 27 -15q3 -7 2 -15q-1 -9 6.5 -10.5t17 1t18 -4t9.5 -24.5q52 35 96.5 38.5t82.5 -20.5t74 -76
q25 28 41.5 44.5t39.5 32.5t43.5 20t47 -0.5t56.5 -20.5q61 -34 97.5 -100t48.5 -144z" />
    <glyph glyph-name="n" unicode="n" horiz-adv-x="542" 
d="M515 480q11 -165 7 -247q-4 -98 -12 -125q-12 -36 -33 -10q-1 -2 -2 -13.5t-1.5 -16t-2 -14.5t-3.5 -15.5t-4.5 -13.5t-6 -14t-8.5 -12q-14 -15 -26.5 -6t-12.5 28q-1 -3 -5 -11.5t-8 -15t-9 -12t-11 -5t-12 8.5q6 204 9 265q0 8 2 30q16 238 -29 310q-32 51 -93 29
q-33 -12 -54 -44.5t-28.5 -70t-10 -73t-0.5 -59.5l2 -23q4 -32 3 -87.5t1 -87.5q0 -3 1 -12q13 -110 -16 -110q-8 0 -18 7q-3 -43 -17 -60q-9 -13 -26.5 -12t-18.5 19q-52 -61 -52 31q0 10 1 44l24 532q-4 19 0 72q7 79 38 72l4 -2q-2 17 9 26.5t25 0.5q8 -4 10.5 -10.5
t1.5 -13t1 -14.5q1 -5 4 -5.5t7 1t8 3.5t8.5 4t7.5 1q21 -3 18 -54q54 46 104 58.5t88 -6.5t67.5 -58t47 -93.5t21.5 -115.5z" />
    <glyph glyph-name="o" unicode="o" 
d="M516 384q3 -35 -1 -77.5t-14.5 -90t-30 -89.5t-45.5 -75t-65.5 -48.5t-85.5 -6.5q-49 9 -90 43t-68 79t-46.5 101.5t-29.5 106.5t-14 97q-13 176 52 258q15 18 38 37t43 28q22 10 51 7q25 -3 13 -23q17 4 45.5 -0.5t16.5 -23.5q-8 -12 -42 -16.5t-38 -17.5
q16 -11 18.5 -19.5t-2 -14t-17.5 -16.5t-20 -20q-32 -41 -38 -125q-11 -151 67 -277q6 -10 14 -21t21.5 -27t27 -23.5t22.5 -1.5q30 21 53 76q23 57 24 126t-17 128q-3 11 -2.5 24t7.5 21t23 -2q-3 11 -18 52.5t-16 64.5q0 30 26 17q13 -7 20 -18q0 2 -4 12q-20 57 -2 56
q4 0 9 -2q34 -13 63 -74q43 -83 52 -225z" />
    <glyph glyph-name="p" unicode="p" horiz-adv-x="580" 
d="M523 459q14 -48 21.5 -79t13.5 -77t3.5 -80.5t-15 -74.5t-37.5 -74q-33 -48 -84 -65.5t-101.5 -6.5t-96.5 42t-75 75q0 -4 2 -28q15 -212 -15 -212q-5 0 -11 5q-4 -49 -20 -66q-10 -12 -24.5 -8t-15.5 20q-37 -48 -42 -2q-2 12 -2 42q1 30 -1 40l15 577q-8 49 -2 112
q6 64 34 58q2 -1 3 -2q-3 27 17 30q18 3 25 -15q3 -7 3 -17q-2 -11 4 -12t14.5 3t17.5 1.5t11.5 -17t2.5 -33.5t-1.5 -33t-5 -36.5t-4.5 -31.5q-12 -102 -11 -167q8 26 31 43q24 17 26 -13q0 -6 -1 -14q28 34 40 23.5t8 -54.5q-10 -80 26 -127q29 -38 64.5 -45.5t63 15.5
t35.5 70q24 122 -53 276q-35 69 -84 108q-8 7 -12.5 9.5t-7.5 3t-9.5 1.5l-13.5 2q-22 5 -22 22q-28 -19 -45 -14q-11 3 -8 18.5t15 23.5t27 14t21 15q-2 2 -14.5 4.5t-18.5 7t1 13.5q14 20 57 22q62 2 117 -47q34 -30 61 -74.5t41 -80t32 -90.5z" />
    <glyph glyph-name="q" unicode="q" horiz-adv-x="608" 
d="M650 -69q10 -14 -50 -56.5t-78 -41.5q-13 -11 -21 -34t-15 -33q-11 -15 -26.5 -10.5t-15.5 22.5q-42 -58 -50 5q-3 27 1 62q5 45 6 129t3 110q-38 -41 -87.5 -63t-105 -18.5t-99.5 37.5q-35 27 -57 66.5t-28.5 84t-4.5 88t12 87.5q47 208 151 324q45 50 116 61
q19 3 57 -13q41 -18 12 -33q16 -7 30.5 -25t-5.5 -29q-8 -1 -34.5 10t-32.5 4q5 -14 2.5 -27t-20.5 -19q-4 -1 -9 -3t-9 -4.5t-9 -6.5t-8 -7t-8 -8.5t-7 -8l-7 -9l-6.5 -8.5t-6 -9t-5.5 -8q-86 -123 -92 -247q-2 -26 3 -55t16 -56.5t34 -39.5t55 0q28 10 48.5 34t30.5 54
q0 2 1 5l6.5 19t8.5 16.5t13.5 8.5t17.5 -12q0 3 1 18q8 98 31 98q5 1 11 -4q1 26 -1 193q-1 81 16 94q8 6 20 1q-2 18 8.5 31.5t26.5 0.5q8 -7 8.5 -28t8.5 -25q22 11 33.5 5.5t12 -23.5t-0.5 -42q-2 -31 -8 -97t-8 -100q-3 -87 -1 -142t5.5 -142t3.5 -142q14 12 21 15t9 0
t8.5 -7t17.5 -3q16 0 50 -44z" />
    <glyph glyph-name="r" unicode="r" horiz-adv-x="383" 
d="M339 690q15 0 23 -13.5t5 -30.5q-1 -8 -5.5 -13t-5.5 -6.5t3 -10.5q6 -10 6 -19t-9 -11q-8 -1 -13 3.5t-7.5 11t-14 11t-31.5 4.5q-32 -1 -57.5 -13.5t-41.5 -33.5t-25.5 -42.5t-15.5 -46.5q-10 -45 -1 -284q7 -189 -7 -189q-9 0 -28 60q-4 -41 -19 -57q-9 -12 -21 -11
t-13 18q-44 -46 -43 9q0 16 4 47l3 485v18.5v30t0.5 32.5t3 35t6 27.5t9.5 19t15 1.5q-3 17 8.5 25.5t26.5 1.5q8 -4 10.5 -9.5t2.5 -14t1 -12.5q4 -6 9 -4.5t14 5.5t13 4q23 -2 20 -53q29 25 58 36.5t79 15.5q15 1 22.5 -0.5t7.5 -4.5t-2 -6.5l-4 -7t1.5 -6t12.5 -2.5z" />
    <glyph glyph-name="s" unicode="s" horiz-adv-x="475" 
d="M320 394q80 -25 114 -88t5 -141q-43 -120 -237 -166q-23 -5 -43 6q-19 10 2 27q-72 -6 -111 21q-18 14 -8.5 27.5t30.5 11.5q-73 48 28 50q10 1 22 0q47 -1 77 9t62 40q59 58 -48 90q-47 14 -75.5 28t-62.5 43q-50 44 -61 105.5t11.5 119.5t68.5 104q38 39 77 64
q11 8 35.5 17.5l43.5 16.5l19 6q-2 -1 1 0h3q89 15 73 -17q17 4 41.5 -1.5t9.5 -24.5q-6 -9 -17 -14t-28 -9t-23 -7q22 -12 31.5 -24t5 -20.5t-12.5 -15.5t-25 -13t-28.5 -9t-26.5 -6q-46 -10 -78 -38t-48 -66q-6 -15 -6 -28t5.5 -23t14 -18t21.5 -14.5t26.5 -11.5
t29.5 -9.5l29.5 -8t28.5 -7t24 -6.5z" />
    <glyph glyph-name="t" unicode="t" horiz-adv-x="233" 
d="M1817 871q66 -17 76 -21q32 -14 -5 -24q-29 -8 -69.5 -9t-69.5 0q-59 1 -200 4t-217 3q-141 1 -534.5 -2.5t-612.5 -1.5q-1 -58 -2.5 -280t0.5 -309q1 -122 -25 -114q-6 2 -13 12q0 -1 -0.5 -10.5t-0.5 -12t-1 -11.5t-1 -12.5t-1 -11.5t-2 -12.5l-2.5 -11.5t-3 -11.5
l-3.5 -10.5t-5 -11q-12 -22 -26.5 -13t-15.5 32q-1 -1 -3 -8q-14 -42 -27 -42q-6 -1 -12 7q-11 16 -12 68q0 35 4 102.5t4 100.5l6 560q-10 0 -26 -0.5t-61 -1t-68 1.5q-59 3 -72 8q-27 10 2 32q-19 -1 -69 12q-47 13 -36 26q2 3 6 5q20 13 59 18.5t68 4.5l29 -1
q-2 0 -4.5 0.5t-10 3t-12.5 5.5t-9.5 6.5t-3 9t8.5 10.5q12 9 61.5 12.5t93.5 3.5l44 -1l4 -12q3 1 2 62q-2 167 36 145q-2 19 5.5 44t25.5 8q12 -11 11.5 -43.5t9.5 -40.5q20 19 30.5 18.5t14.5 -31.5q4 -32 0 -105q-1 -34 -3 -35q-1 0 -3 15l-3 10q0 -5 -1 -34
q119 0 395 -4.5t425 -3.5q74 0 209.5 0.5t190.5 0.5q105 1 180 2q35 0 70 -11q36 -13 -3 -29q6 0 35 -0.5t38 -1t34 -1.5t38.5 -3t33 -5.5t36.5 -7.5q48 -14 15 -30q-23 -12 -52 -12z" />
    <glyph glyph-name="u" unicode="u" horiz-adv-x="449" 
d="M422 713q12 -56 9 -186q0 -16 -0.5 -60t-1 -67.5t-3.5 -67t-7 -71.5t-12.5 -65.5t-20.5 -64t-30 -54t-40 -46.5q-49 -40 -106 -33t-97 55q-36 42 -52 101.5t-26 139.5q-22 183 -16 282v9q2 153 35 134q2 -1 3 -2q-1 19 7.5 44t25.5 7q10 -10 14 -31.5t3 -37.5l-1 -16
q20 18 30 17t13 -32q3 -32 -3 -135q-3 -54 -3.5 -88.5t1 -87.5t11.5 -94t28 -69q17 -28 40 -32t42.5 17t26.5 60q-2 216 -6 322q-1 33 13 53q10 15 24 -2q0 9 -0.5 27.5t-1 30.5t1 27.5t5.5 27.5q9 25 24 16t20 -32q0 3 1 11.5t2.5 16t3.5 15t7 10.5t12 0q15 -6 24 -49z" />
    <glyph glyph-name="v" unicode="v" horiz-adv-x="481" 
d="M459 726q7 -6 5 -25.5t-14 -56t-26.5 -75l-32.5 -82.5l-33 -78l-27 -62.5l-15 -35.5q-28 -76 -45 -135q-2 -10 -6 -35.5t-9.5 -45.5t-16.5 -31q7 -18 -1 -25t-20.5 -8t-14.5 -4q-1 -20 -19.5 -23.5t-24.5 16.5q-20 -59 -44 -1q-12 27 -16 53q-5 38 -21.5 114.5
t-21.5 115.5q-7 55 -17.5 156l-13.5 130q0 2 -2 15t-3.5 25.5t-2.5 29t0 29.5t4 24t10 15.5t18 0.5q-3 15 7 24.5t24 1.5q9 -5 11 -22t9 -20q29 13 38 1t8 -48q-5 -164 46 -367q11 36 32 117.5t35 123.5q1 3 4 14q42 144 71 144q8 0 15 -11q17 38 36 49q13 9 27.5 2t9.5 -24
q3 2 8.5 6t8.5 6t9 3.5t11 -1.5z" />
    <glyph glyph-name="w" unicode="w" horiz-adv-x="745" 
d="M721 747q6 -2 7.5 -16.5t-2.5 -38t-10.5 -53t-16 -63l-19 -66.5t-20 -65.5l-18.5 -57.5l-14.5 -44l-8.5 -25q-23 -79 -37 -139q-2 -8 -5.5 -35t-9 -47t-15.5 -31q6 -19 -2 -26t-21 -8t-14 -3q-2 -20 -19 -23.5t-24 15.5q-33 -66 -56 33q-2 9 -6 24q-2 14 -4 19
q-14 54 -36 155t-32 139q-60 -154 -77 -217q-2 -6 -5 -28.5t-7.5 -43.5t-10.5 -42t-17 -31t-24 -3q0 -19 -18.5 -20.5t-24.5 15.5q-17 -57 -42 0q-13 29 -16 54q-5 38 -21 113.5t-21 114.5q-7 54 -16.5 152.5l-12.5 130.5q0 2 -2 15t-3.5 25t-3 29t0 29.5t4 23.5t10 15
t17.5 1q-2 15 7.5 24.5t23.5 1.5q9 -5 10.5 -22t8.5 -20q29 13 37.5 1t7.5 -48q-4 -177 40 -345q19 93 46 179q1 2 3 11.5t4.5 17l6 17.5t8 16t9.5 10t12 1.5t15 -11.5q2 5 5.5 11l9.5 16.5t12 17.5t13 12t14.5 3t12.5 -12q7 -11 15 -11.5t14 5t14 4t14 -15.5q8 -18 13 -40
t8.5 -53t5.5 -42q3 -21 10.5 -46t12.5 -40t17 -46l16 -41q12 48 27.5 136.5t23.5 123.5q0 3 3 15q27 150 56 148q7 -1 14 -9q13 40 30 53q11 10 26 4.5t12 -22.5q3 2 9.5 9t12 9.5t13.5 0.5z" />
    <glyph glyph-name="x" unicode="x" horiz-adv-x="452" 
d="M356 491q-21 -40 -44 -99q-3 -9 -4 -16.5t1.5 -15t5 -12.5l7.5 -14.5t8 -14.5l70 -154q21 -47 23 -57q9 -37 -25 -28q15 -41 9 -63q-3 -15 -17.5 -19.5t-22.5 11.5q-6 -22 -14.5 -30t-17 -2.5t-16 18t-13.5 30.5q-8 26 -19 54.5t-26 64t-22 53.5q-1 -2 -5 -13
q-53 -143 -81 -143q-8 0 -14 11q-6 -11 -10.5 -18.5t-12.5 -16.5t-17 -14q-13 -9 -26.5 -1t-7.5 25q-50 -27 -44 10q4 25 33 77q21 37 53 110.5t46 101.5l8 14t6.5 12.5t3 10.5t0.5 13.5t-4 14.5l-25 65q-23 58 -44 104q-2 3 -8 14.5l-11.5 23l-12.5 26.5t-11 28t-5.5 24.5
t3.5 18.5t16 8q-15 23 3 34q16 10 30 -7q4 -4 6 -11q4 -9 7.5 -10t7 3.5t8.5 9t10.5 6.5t12.5 -4q11 -9 18 -23.5t13.5 -36.5t9.5 -29q7 -19 21.5 -64t23.5 -68q12 24 64 156q1 1 2 4q33 83 61 56q4 15 16 21t23 -7q4 -11 4.5 -14.5t-3.5 -12.5t-5 -14t3.5 -6t11 0
t13.5 -0.5t9 -6.5q6 -14 -9 -48q-10 -21 -22.5 -44.5l-28 -52z" />
    <glyph glyph-name="y" unicode="y" horiz-adv-x="621" 
d="M213 -248q15 -219 -68 -312q-38 -42 -93 -55.5t-109.5 -4t-122.5 36.5t-120 55.5l-114.5 62.5t-93.5 48q-7 4 -22 10l-69.5 32t-71.5 30.5t-77 29t-76.5 22t-79.5 16t-75.5 4.5t-77 -7t-71 -24t-68.5 -41q-93 -72 -156 -309q0 -2 -1 -6l-9.5 -36.5t-7 -35.5t-2.5 -40.5
t7 -33.5q13 -35 44 49l7 17q-5 -32 7 -52q12 -19 29 14q15 28 33 86t29 83q7 -49 68 42q27 41 29 43q70 70 215 46q85 -14 173.5 -44.5t203 -79t166.5 -67.5q44 -16 59 -22t60.5 -21.5t68 -21l66 -16t70 -12.5t65.5 -4t67.5 3.5t60 16.5t57.5 28q31 21 54.5 48.5t38 63.5
t23.5 69t14 80t7.5 80t4.5 86t4 82q10 140 25 207q15 63 33.5 127.5t48.5 158.5t39 126q1 3 8.5 24t15 45l17 55.5t16.5 60t11.5 53.5t3.5 41.5t-9.5 19t-14.5 -1t-13.5 -11.5t-10.5 -10q3 13 -5.5 22t-22.5 5q-12 -4 -22.5 -18.5t-14.5 -24t-10 -28.5q-31 44 -53 -52v-2
q-6 -26 -19.5 -80l-20.5 -82q-5 -21 -27 -133.5t-40 -170.5q-12 41 -38.5 120t-44.5 142.5t-26 122.5q-22 151 -22 152q-3 19 -6.5 30t-9.5 18.5t-16 5.5t-24 -13q-8 2 -13 22.5t-13 25.5q-18 10 -26.5 -5t-3.5 -32q-44 10 -18 -98q1 -2 1 -3l15.5 -75t20 -90t22.5 -74
q52 -142 86 -315t35 -304z" />
    <glyph glyph-name="z" unicode="z" horiz-adv-x="600" 
d="M564 56q2 -2 8.5 -7.5t9 -10t2.5 -12.5q2 -24 -67 -25t-159 9t-95 10q-61 -1 -107 -22q-28 -13 -43 -12q-12 2 -17 13q1 23 -19 13q-9 4 -16 23t-2 27q-30 -4 -39 7t-0.5 27.5t27.5 35.5q22 21 56.5 65l44.5 56l59.5 66.5l64.5 72.5t55.5 67.5t54.5 77.5q-27 7 -111 40
t-133 38q-1 0 -12.5 1t-16 2t-13 3.5t-12.5 7t-4 10.5q-1 6 -7.5 23t-1.5 29q5 16 21 14q6 -1 6.5 6.5t-1 17t-0.5 11.5q5 26 52 9q26 -10 56 -18.5t50.5 -13t57.5 -12t54 -11.5q5 -1 20 -3t27.5 -4.5t26.5 -7t21 -12t5 -16.5q-1 -5 -1.5 -9.5t-1 -6t-1 -3.5t0 -2t1 -0.5
t1 -0.5t2 -1l3 -2t4.5 -3.5t5 -6.5q11 -13 8 -30q9 -5 10 -15.5t-2.5 -19t-3 -15t8.5 -6.5q19 -1 22.5 -15t-5.5 -28q-21 -31 -72 -82t-70 -77q-21 -29 -63 -92.5t-66 -95.5q36 4 77 6.5t90.5 4.5t77.5 4q12 3 23.5 1t13.5 -18q1 -7 1.5 -12.5t0 -6.5t1 -2t2.5 -0.5t6 -1
t11 -3.5q14 -6 23 -28.5t-10 -27.5z" />
    </font>
</defs>
</svg>
